<?xml version="1.0" encoding="utf-8"?>
<!-- Generator: Adobe Illustrator 27.5.0, SVG Export Plug-In . SVG Version: 6.00 Build 0)  -->
<svg version="1.1" xmlns="http://www.w3.org/2000/svg" xmlns:xlink="http://www.w3.org/1999/xlink" x="0px" y="0px"
	 viewBox="0 0 750 500" style="enable-background:new 0 0 750 500;" xml:space="preserve">
<g id="BACKGROUND">
	<rect id="BACKGROUND_1_" style="fill:#09136E;" width="750" height="500"/>
</g>
<g id="OBJECTS">
	<g style="opacity:0.4;">
		<g>
			<path style="fill:#09136E;" d="M666.577,416.894h-545.81c-14.347-17.429-25.935-37.115-33.912-58.231
				C72.322,320.191,66.9,274.585,71.932,233.931c5.109-41.277,19.1-82.688,48.042-113.472c31.74-33.759,82.696-56.327,128.36-62.192
				c37.886-4.866,91.725,6.222,118.115,36.28c22.722,25.898,27.226,60.395,38.369,91.66c11.208,31.433,26.994,60.07,53.059,81.78
				c7.679,6.398,16.724,12.573,26.576,18.042c32.203,17.875,62.93,21.655,98.81,18.711c32.473-2.674,63.524,9.982,79.254,40.18
				C673.969,366.881,674.544,393.327,666.577,416.894z"/>
		</g>
		<circle style="fill:#09136E;" cx="599.148" cy="162.572" r="72.786"/>
	</g>
	<g>
		<g>
			<path style="fill:#B19CFE;" d="M686.977,418.395H63.023c-0.829,0-1.5-0.672-1.5-1.5c0-0.828,0.671-1.5,1.5-1.5h623.955
				c0.828,0,1.5,0.672,1.5,1.5C688.477,417.723,687.806,418.395,686.977,418.395z"/>
		</g>
	</g>
	<path style="fill:#542FD0;" d="M262.965,350.695l-8.697,1.216c-0.806-1.646-1.749-3.205-2.822-4.658l5.105-7.146
		c1.876-2.626,1.268-6.276-1.358-8.152l-5.825-4.161c-2.626-1.876-6.276-1.268-8.152,1.358l-5.105,7.145
		c-1.224-0.387-2.479-0.693-3.757-0.922l-1.217-8.697c-0.447-3.197-3.401-5.426-6.597-4.978l-7.09,0.992
		c-3.197,0.447-5.425,3.401-4.978,6.597l1.216,8.697c-1.166,0.571-2.289,1.21-3.359,1.918l-6.87-5.471
		c-2.525-2.011-6.202-1.594-8.212,0.931l-4.459,5.6c-2.011,2.525-1.594,6.202,0.931,8.212l6.87,5.471
		c-0.633,1.691-1.112,3.45-1.436,5.253l-8.697,1.216c-3.196,0.447-5.425,3.401-4.978,6.597l0.992,7.089
		c0.447,3.197,3.401,5.425,6.597,4.978l8.697-1.217c0.806,1.645,1.749,3.205,2.822,4.658l-5.105,7.146
		c-1.876,2.626-1.268,6.276,1.358,8.152l5.825,4.161c2.626,1.876,6.276,1.268,8.152-1.358l5.105-7.146
		c1.224,0.387,2.479,0.693,3.757,0.922l1.217,8.697c0.447,3.196,3.401,5.425,6.597,4.978l7.089-0.992
		c3.196-0.447,5.425-3.401,4.978-6.597l-1.216-8.697c1.166-0.571,2.288-1.21,3.359-1.917l6.87,5.47
		c2.525,2.011,6.202,1.594,8.212-0.931l4.46-5.6c2.011-2.525,1.594-6.202-0.931-8.212l-6.87-5.471
		c0.633-1.691,1.112-3.45,1.436-5.253l8.697-1.217c3.197-0.447,5.425-3.401,4.978-6.597l-0.992-7.089
		C269.115,352.477,266.161,350.248,262.965,350.695z M229.712,384.51c-10.627,1.486-20.481-5.949-21.968-16.576
		c-1.486-10.627,5.949-20.481,16.576-21.968c10.627-1.487,20.481,5.949,21.968,16.576
		C247.774,373.17,240.339,383.024,229.712,384.51z"/>
	<path style="opacity:0.3;fill:none;stroke:#FFFFFF;stroke-miterlimit:10;" d="M632.162,99.579l-10.15-2.277
		c-0.208-2.161-0.603-4.283-1.188-6.341l8.64-5.795c3.175-2.13,4.023-6.43,1.893-9.605l-4.724-7.042
		c-2.13-3.175-6.43-4.023-9.606-1.893l-8.639,5.794c-1.196-0.939-2.46-1.802-3.781-2.589l2.277-10.15
		c0.837-3.731-1.509-7.434-5.239-8.271l-8.274-1.856c-3.731-0.837-7.433,1.509-8.27,5.24l-2.277,10.15
		c-1.53,0.147-3.042,0.387-4.524,0.726l-5.336-8.93c-1.961-3.282-6.212-4.353-9.494-2.391l-7.279,4.35
		c-3.282,1.961-4.353,6.212-2.391,9.494l5.336,8.93c-1.407,1.611-2.672,3.361-3.782,5.226l-10.15-2.277
		c-3.731-0.837-7.433,1.509-8.27,5.24l-1.856,8.274c-0.837,3.731,1.509,7.434,5.24,8.271l10.15,2.277
		c0.208,2.16,0.603,4.283,1.188,6.341l-8.64,5.795c-3.175,2.13-4.023,6.43-1.893,9.606l4.723,7.043
		c2.13,3.175,6.43,4.023,9.606,1.893l8.639-5.794c1.196,0.939,2.46,1.802,3.781,2.589l-2.277,10.15
		c-0.837,3.731,1.509,7.433,5.24,8.27l8.274,1.856c3.73,0.837,7.433-1.509,8.27-5.24l2.277-10.15
		c1.531-0.147,3.042-0.387,4.524-0.726l5.336,8.93c1.961,3.282,6.212,4.353,9.494,2.391l7.279-4.35
		c3.282-1.961,4.353-6.212,2.391-9.494l-5.336-8.93c1.407-1.611,2.672-3.361,3.782-5.226l10.15,2.277
		c3.731,0.837,7.434-1.509,8.271-5.24l1.856-8.274C638.239,104.118,635.893,100.416,632.162,99.579z M581.193,123.209
		c-12.403-2.782-20.229-15.135-17.447-27.538c2.782-12.403,15.135-20.229,27.538-17.447c12.403,2.783,20.229,15.136,17.447,27.538
		C605.949,118.165,593.596,125.992,581.193,123.209z"/>
	<path style="fill:#542FD0;" d="M668.188,169.113l-8.154,1.141c-0.756-1.543-1.64-3.005-2.646-4.367l4.786-6.7
		c1.759-2.462,1.189-5.885-1.273-7.644l-5.461-3.902c-2.462-1.759-5.885-1.189-7.644,1.273l-4.786,6.7
		c-1.148-0.363-2.324-0.65-3.522-0.865l-1.141-8.154c-0.419-2.997-3.189-5.087-6.186-4.668l-6.647,0.93
		c-2.997,0.419-5.087,3.189-4.668,6.186l1.141,8.154c-1.093,0.535-2.146,1.134-3.15,1.798l-6.441-5.129
		c-2.367-1.885-5.815-1.495-7.7,0.873l-4.181,5.25c-1.885,2.367-1.495,5.815,0.873,7.7l6.441,5.129
		c-0.594,1.586-1.043,3.235-1.346,4.926l-8.154,1.141c-2.997,0.419-5.087,3.189-4.668,6.186l0.93,6.647
		c0.419,2.997,3.189,5.087,6.186,4.668l8.154-1.141c0.756,1.543,1.64,3.005,2.646,4.367l-4.786,6.7
		c-1.759,2.462-1.189,5.885,1.273,7.644l5.461,3.902c2.462,1.759,5.885,1.189,7.644-1.273l4.786-6.7
		c1.148,0.363,2.324,0.65,3.522,0.865l1.141,8.154c0.419,2.997,3.189,5.087,6.186,4.668l6.647-0.93
		c2.997-0.419,5.087-3.189,4.667-6.186l-1.141-8.154c1.093-0.536,2.146-1.134,3.15-1.798l6.441,5.129
		c2.367,1.885,5.815,1.494,7.7-0.873l4.181-5.251c1.885-2.367,1.494-5.815-0.873-7.7l-6.441-5.129
		c0.594-1.586,1.043-3.235,1.346-4.925l8.154-1.141c2.997-0.419,5.087-3.189,4.668-6.186l-0.93-6.647
		C673.954,170.783,671.185,168.693,668.188,169.113z M637.009,200.819c-9.964,1.394-19.203-5.578-20.597-15.542
		c-1.394-9.964,5.578-19.204,15.542-20.597c9.964-1.394,19.203,5.578,20.597,15.542
		C653.945,190.185,646.973,199.425,637.009,200.819z"/>
	<g>
		<g>
			<path style="fill:#542FD0;" d="M123.752,302.064c17.432,4.691,32.066,15.918,45.93,27.034c-4.593-0.267-9.017,1.796-13.524,2.81
				c-4.805,1.081-9.666,1.945-14.573,2.402c-9.945,0.926-19.993,0.07-29.457-3.229c-14.086-4.909-26.548-14.365-35.069-26.61
				C91.855,298.799,108.453,297.944,123.752,302.064z"/>
		</g>
		<g>
			<path style="fill:#B19CFE;" d="M97.007,310.55c10.137,2.878,20.295,5.681,30.473,8.408c10.13,2.714,20.28,5.353,30.45,7.917
				c5.763,1.453,11.531,2.881,17.306,4.286c0.862,0.21,1.103-1.146,0.244-1.355c-10.239-2.491-20.459-5.057-30.66-7.699
				c-10.152-2.63-20.285-5.335-30.397-8.115c-5.73-1.575-11.454-3.175-17.171-4.798C96.398,308.953,96.161,310.31,97.007,310.55
				L97.007,310.55z"/>
		</g>
	</g>
	<g>
		<g>
			<path style="fill:#B19CFE;" d="M132.706,259.371c9.077,16.189,11.337,35.017,13.126,53.198c-3.104-3.569-7.8-5.34-11.784-7.925
				c-4.248-2.756-8.376-5.71-12.238-8.99c-7.827-6.646-14.418-14.65-18.793-23.979c-6.512-13.885-8.514-29.844-5.633-44.907
				C112.186,233.571,124.741,245.161,132.706,259.371z"/>
		</g>
		<g>
			<path style="fill:#542FD0;" d="M107.247,245.803c5.168,9.521,10.406,19.005,15.715,28.449
				c5.283,9.399,10.636,18.759,16.059,28.079c3.072,5.281,6.168,10.549,9.284,15.805c0.465,0.785,1.635-0.013,1.171-0.794
				c-5.526-9.318-10.983-18.677-16.37-28.076c-5.361-9.355-10.654-18.749-15.876-28.182c-2.959-5.345-5.896-10.703-8.811-16.073
				C107.984,244.208,106.816,245.009,107.247,245.803L107.247,245.803z"/>
		</g>
	</g>
	<g>
		<g>
			<path style="fill:#542FD0;" d="M616.304,269.812c-10.656,14.572-15.037,32.489-18.888,49.836
				c3.415-3.084,8.155-4.246,12.304-6.277c4.424-2.165,8.755-4.536,12.867-7.251c8.334-5.504,15.633-12.463,20.947-20.96
				c7.91-12.648,11.707-27.823,10.684-42.706C639.132,247.295,625.654,257.02,616.304,269.812z"/>
		</g>
		<g>
			<path style="fill:#B19CFE;" d="M642.472,259.684c-6.103,8.59-12.268,17.136-18.497,25.635
				c-6.2,8.459-12.462,16.872-18.786,25.238c-3.584,4.741-7.188,9.466-10.811,14.177c-0.541,0.704-1.577-0.203-1.039-0.903
				c6.424-8.353,12.787-16.752,19.087-25.199c6.27-8.407,12.477-16.86,18.622-25.359c3.482-4.816,6.943-9.647,10.385-14.492
				C641.947,258.058,642.981,258.967,642.472,259.684L642.472,259.684z"/>
		</g>
	</g>
	<g>
		<g>
			<path style="fill:#B19CFE;" d="M620.399,308.233c-17.274,6.789-30.94,19.935-43.832,32.879c4.662-0.798,9.418,0.802,14.139,1.322
				c5.033,0.555,10.099,0.88,15.165,0.786c10.267-0.192,20.435-2.217,29.727-6.671c13.83-6.628,25.48-17.716,32.784-31.203
				C652.616,301.246,635.56,302.272,620.399,308.233z"/>
		</g>
		<g>
			<path style="fill:#542FD0;" d="M648.698,313.841c-10.028,4.1-20.085,8.128-30.172,12.079
				c-10.039,3.933-20.108,7.791-30.204,11.575c-5.721,2.144-11.452,4.264-17.191,6.36c-0.857,0.313-1.258-1.044-0.404-1.356
				c10.176-3.717,20.325-7.509,30.444-11.376c10.072-3.849,20.115-7.773,30.129-11.771c5.674-2.265,11.339-4.555,16.995-6.868
				C649.136,312.14,649.534,313.499,648.698,313.841L648.698,313.841z"/>
		</g>
	</g>
	<g>
		<path style="fill:#DED7FF;" d="M583.836,103.565v237.028c0,9.076-7.353,16.442-16.429,16.442H163.16
			c-9.076,0-16.442-7.366-16.442-16.442V103.565c0-9.076,7.366-16.428,16.442-16.428h404.248
			C576.484,87.137,583.836,94.489,583.836,103.565z"/>
		<path style="fill:#D42190;" d="M583.836,103.565v8.457H146.718v-8.457c0-9.076,7.366-16.428,16.442-16.428h404.248
			C576.484,87.137,583.836,94.489,583.836,103.565z"/>
	</g>
	<path style="fill:#D42190;" d="M232.676,254.318l15.94-22.024c3.624,0.711,7.305-0.462,9.409-3.369
		c2.152-2.973,2.062-6.944,0.131-10.207l-5.963,8.239l-7.432-5.379l5.963-8.239c-3.703-0.815-7.503,0.34-9.655,3.314
		c-2.104,2.907-2.068,6.77-0.261,9.99l-15.94,22.024c-3.624-0.711-7.304,0.462-9.408,3.369c-2.152,2.973-2.062,6.944-0.131,10.207
		l5.963-8.239l7.432,5.379l-5.963,8.239c3.703,0.815,7.503-0.34,9.655-3.314C234.519,261.402,234.483,257.539,232.676,254.318z"/>
	<g>
		<g>
			<g>
				<path style="fill:#FFC655;" d="M332.6,197.589c-6.813,5.939-17.163,5.24-23.102-1.572c-9.455-10.83-23.124-17.032-37.47-17.032
					c-13.8,0-26.29,5.633-35.286,14.739c-8.931,8.996-14.434,21.355-14.434,34.981c0,13.56,5.438,25.831,14.259,34.806
					c9.018,9.193,21.595,14.914,35.46,14.914c10.983,0,20.198-3.275,29.937-10.612c7.227-5.437,17.49-3.996,22.927,3.232
					c5.459,7.228,4.017,17.49-3.21,22.927c-15.372,11.573-31.597,17.207-49.655,17.207c-23.713,0-45.112-10.066-60.179-26.138
					c-13.8-14.761-22.295-34.566-22.295-56.336c0-18.866,6.376-36.269,17.054-50.178c15.089-19.63,38.802-32.295,65.419-32.295
					c23.823,0,46.466,10.285,62.145,28.255C340.112,181.299,339.413,191.649,332.6,197.589z"/>
			</g>
		</g>
		<g>
			<path style="fill:#FFC655;" d="M541,228.705c0,21.77-8.473,41.575-22.294,56.336c-15.067,16.071-36.466,26.138-60.179,26.138
				c-19.696,0-38.78-7.075-53.694-19.892c-6.878-5.896-7.664-16.246-1.768-23.102c5.896-6.856,16.246-7.643,23.102-1.747
				c8.997,7.73,20.482,11.988,32.361,11.988c13.757,0,26.225-5.612,35.243-14.674c8.953-8.996,14.477-21.377,14.477-35.046
				c0-13.604-5.481-25.919-14.346-34.915c-9.018-9.127-21.551-14.805-35.374-14.805c-14.346,0-28.015,6.201-37.47,17.032
				c-5.939,6.813-16.289,7.512-23.102,1.572c-6.813-5.939-7.512-16.29-1.572-23.102c15.678-17.971,38.344-28.255,62.144-28.255
				c26.53,0,50.178,12.577,65.267,32.098C534.58,192.261,541,209.751,541,228.705z"/>
		</g>
		<g>
			<g>
				<path style="fill:#FFC655;" d="M428.131,291.264c-3.21,3.21-7.403,4.826-11.617,4.826c-4.17,0-8.341-1.594-11.551-4.76
					l-12.381-12.315l-66.403-66.009l-24.478-24.347c-6.398-6.376-6.441-16.748-0.066-23.168c6.376-6.42,16.748-6.442,23.168-0.065
					l25.569,25.438l65.092,64.699l12.599,12.534C434.485,274.472,434.507,284.844,428.131,291.264z"/>
			</g>
		</g>
		<g>
			<path style="fill:#FFC655;" d="M428.131,165.49c6.376,6.42,6.354,16.792-0.065,23.168l-24.26,24.129l-66.446,66.075
				l-13.582,13.494c-3.21,3.166-7.381,4.76-11.551,4.76c-4.215,0-8.407-1.616-11.617-4.826c-6.376-6.419-6.354-16.791,0.066-23.167
				l13.647-13.56l65.048-64.677l25.591-25.46c2.533-2.577,8.276-6.616,14.018-9.63c6.048-3.188,12.097-5.284,13.91-5.481
				C437.673,149.79,424.484,161.822,428.131,165.49z"/>
		</g>
		<path style="fill:#542FD0;" d="M541,228.705c0,21.77-8.473,41.575-22.294,56.336l-24.26,0.874l-0.677-22.163
			c8.953-8.996,14.477-21.377,14.477-35.046c0-13.604-5.481-25.919-14.346-34.915l23.648,5.197l6.245-20.657
			C534.58,192.261,541,209.751,541,228.705z"/>
		<path style="fill:#542FD0;" d="M222.308,228.705c0,13.56,5.438,25.831,14.259,34.806l-0.677,22.403l-24.041-0.874
			c-13.8-14.761-22.295-34.566-22.295-56.336c0-18.866,6.376-36.269,17.054-50.178l6.18,20.46l23.954-5.262
			C227.811,202.72,222.308,215.079,222.308,228.705z"/>
		<polygon style="fill:#542FD0;" points="415.467,255.563 393.456,256.349 392.583,279.014 326.18,213.005 324.849,187.654 
			350.374,190.863 		"/>
		<polygon style="fill:#D42190;" points="405.117,187.654 403.806,212.786 337.36,278.861 336.487,256.349 314.324,255.563 
			379.372,190.885 		"/>
	</g>
	<path style="fill:#09136E;" d="M418.993,278.569l-5.863-1.759c-0.032-1.277-0.176-2.539-0.433-3.772l5.312-3.042
		c1.953-1.118,2.629-3.607,1.511-5.56l-2.48-4.33c-1.118-1.953-3.607-2.629-5.56-1.511l-5.312,3.042
		c-0.663-0.601-1.369-1.16-2.112-1.677l1.759-5.863c0.647-2.155-0.576-4.426-2.731-5.073l-4.78-1.434
		c-2.155-0.646-4.426,0.576-5.073,2.732l-1.759,5.863c-0.904,0.023-1.802,0.101-2.686,0.238l-2.761-5.464
		c-1.015-2.008-3.465-2.814-5.473-1.799l-4.454,2.25c-2.008,1.015-2.813,3.465-1.799,5.473l2.761,5.464
		c-0.893,0.887-1.708,1.862-2.438,2.91l-5.863-1.759c-2.155-0.647-4.426,0.576-5.073,2.732l-1.434,4.78
		c-0.647,2.155,0.576,4.426,2.731,5.073l5.863,1.759c0.032,1.277,0.176,2.539,0.433,3.772l-5.313,3.042
		c-1.953,1.118-2.629,3.607-1.511,5.56l2.48,4.33c1.118,1.953,3.607,2.629,5.56,1.511l5.313-3.042
		c0.663,0.601,1.369,1.16,2.111,1.677l-1.759,5.863c-0.647,2.155,0.576,4.426,2.731,5.073l4.78,1.434
		c2.155,0.646,4.426-0.576,5.073-2.732l1.759-5.863c0.905-0.023,1.802-0.101,2.686-0.238l2.761,5.464
		c1.015,2.008,3.465,2.813,5.473,1.799l4.454-2.25c2.008-1.015,2.814-3.465,1.799-5.473l-2.761-5.464
		c0.893-0.887,1.708-1.862,2.438-2.91l5.863,1.759c2.155,0.646,4.426-0.576,5.073-2.732l1.434-4.779
		C422.371,281.487,421.148,279.216,418.993,278.569z M388.091,290.319c-7.165-2.149-11.245-9.726-9.095-16.891
		c2.149-7.165,9.726-11.245,16.891-9.095c7.165,2.149,11.245,9.726,9.095,16.891C402.832,288.389,395.256,292.469,388.091,290.319z"
		/>
	<path style="fill:#09136E;" d="M452.568,303.023l-4.395,0.723c-0.429-0.824-0.926-1.604-1.488-2.327l2.501-3.685
		c0.919-1.354,0.566-3.198-0.788-4.117l-3.004-2.039c-1.354-0.919-3.198-0.566-4.117,0.788l-2.501,3.685
		c-0.625-0.181-1.265-0.321-1.916-0.422l-0.723-4.395c-0.266-1.615-1.791-2.709-3.406-2.444l-3.582,0.59
		c-1.615,0.266-2.709,1.791-2.443,3.406l0.723,4.395c-0.584,0.304-1.146,0.641-1.68,1.013l-3.55-2.69
		c-1.305-0.989-3.164-0.732-4.152,0.572l-2.193,2.894c-0.989,1.305-0.732,3.164,0.573,4.152l3.55,2.69
		c-0.3,0.865-0.522,1.763-0.664,2.681l-4.395,0.723c-1.615,0.266-2.709,1.791-2.443,3.406l0.59,3.582
		c0.266,1.615,1.791,2.709,3.406,2.444l4.395-0.723c0.429,0.824,0.926,1.604,1.488,2.327l-2.501,3.685
		c-0.919,1.354-0.566,3.198,0.788,4.117l3.004,2.039c1.354,0.919,3.198,0.566,4.117-0.788l2.501-3.685
		c0.625,0.181,1.265,0.321,1.916,0.422l0.723,4.395c0.266,1.615,1.791,2.709,3.406,2.443l3.582-0.589
		c1.615-0.266,2.709-1.791,2.443-3.406l-0.723-4.395c0.584-0.304,1.146-0.641,1.68-1.013l3.55,2.69
		c1.305,0.988,3.164,0.732,4.152-0.572l2.193-2.894c0.988-1.305,0.732-3.164-0.573-4.152l-3.55-2.69
		c0.301-0.865,0.522-1.763,0.664-2.681l4.395-0.723c1.615-0.266,2.709-1.791,2.443-3.406l-0.589-3.582
		C455.708,303.851,454.183,302.757,452.568,303.023z M436.121,320.575c-5.37,0.884-10.457-2.766-11.341-8.136
		c-0.884-5.37,2.766-10.457,8.136-11.341c5.37-0.884,10.457,2.766,11.341,8.136C445.141,314.604,441.491,319.691,436.121,320.575z"
		/>
	<g>
		
			<rect x="200.406" y="198.123" transform="matrix(0.8383 -0.5453 0.5453 0.8383 -82.1975 144.3285)" style="fill:#D42190;" width="3.548" height="25.185"/>
		<g>
			<path style="fill:#09136E;" d="M207.856,219.441c-2.595,1.688-3.331,5.161-1.643,7.756l10.497,16.137
				c1.688,2.595,5.161,3.331,7.756,1.642c2.595-1.688,3.331-5.161,1.643-7.756l-10.497-16.137
				C213.923,218.488,210.451,217.753,207.856,219.441z"/>
			<path style="fill:#09136E;" d="M199.83,197.239l-6.757-6.543c-0.514-0.498-1.373-0.538-2.053-0.096l-1.334,0.868
				c-0.007,0.005-0.01,0.011-0.017,0.016c-0.007,0.005-0.014,0.005-0.021,0.009l-1.334,0.868c-0.68,0.442-0.991,1.243-0.745,1.915
				l3.242,8.829c0.327,0.89,1.473,1.174,2.373,0.588l3.091-2.011c0.007-0.004,0.01-0.011,0.017-0.016
				c0.007-0.004,0.014-0.005,0.021-0.009l3.091-2.011C200.306,199.061,200.511,197.899,199.83,197.239z"/>
		</g>
	</g>
	<g>
		<g>
			<path style="fill:#09136E;" d="M511.913,338.194h-36.288c-2.846,0-5.153-2.307-5.153-5.153v-46.498
				c0-2.846,2.307-5.153,5.153-5.153h36.288c2.846,0,5.153,2.307,5.153,5.153v46.498
				C517.066,335.887,514.759,338.194,511.913,338.194z"/>
			<path style="fill:#FFFFFF;" d="M478.171,287.218l1.601-1.601c0.111-0.111,0.111-0.29,0-0.401c-0.11-0.11-0.289-0.112-0.401,0
				l-1.601,1.601l-1.601-1.601c-0.111-0.111-0.29-0.111-0.401,0c-0.111,0.111-0.111,0.29,0,0.401l1.601,1.601l-1.601,1.601
				c-0.111,0.111-0.111,0.29,0,0.401c0.055,0.055,0.127,0.083,0.201,0.083c0.072,0,0.145-0.028,0.201-0.083l1.601-1.601l1.601,1.601
				c0.055,0.055,0.127,0.083,0.201,0.083c0.073,0,0.145-0.028,0.201-0.083c0.111-0.111,0.111-0.29,0-0.401L478.171,287.218z"/>
		</g>
		<path style="fill:#FFFFFF;" d="M512.658,310.748h-5.334c-0.389,0-0.725,0.264-0.818,0.643l-2.161,8.896l-5.009-25.051
			c-0.079-0.385-0.42-0.669-0.826-0.676c-0.39,0-0.727,0.266-0.819,0.647l-6.107,25.721l-5.757-19.292
			c-0.1-0.339-0.405-0.58-0.73-0.596c-0.358-0.063-0.694,0.143-0.849,0.504l-4.278,9.923h-5.09c-0.464,0-0.842,0.377-0.842,0.842
			s0.378,0.842,0.842,0.842h5.644c0.337,0,0.639-0.2,0.773-0.509l3.58-8.304l5.994,20.087c0.108,0.354,0.438,0.601,0.767,0.601
			c0.021,0,0.042,0,0.063-0.003c0.379-0.01,0.706-0.276,0.796-0.647l5.945-25.036l5,25.007c0.079,0.389,0.412,0.667,0.815,0.676
			h0.01c0.389,0,0.725-0.264,0.818-0.643l2.901-11.948h4.672c0.464,0,0.842-0.377,0.842-0.842S513.122,310.748,512.658,310.748z"/>
	</g>
	<g>
		<g>
			<path style="fill:#09136E;" d="M287.791,165.033h-36.288c-2.846,0-5.153-2.307-5.153-5.153v-46.498
				c0-2.846,2.307-5.153,5.153-5.153h36.288c2.846,0,5.153,2.307,5.153,5.153v46.498
				C292.943,162.726,290.636,165.033,287.791,165.033z"/>
			<path style="fill:#FFFFFF;" d="M254.049,114.058l1.601-1.601c0.111-0.111,0.111-0.29,0-0.401c-0.11-0.11-0.289-0.112-0.401,0
				l-1.601,1.601l-1.601-1.601c-0.111-0.111-0.29-0.111-0.401,0c-0.111,0.111-0.111,0.29,0,0.401l1.601,1.601l-1.601,1.601
				c-0.111,0.111-0.111,0.29,0,0.401c0.055,0.055,0.127,0.083,0.201,0.083c0.072,0,0.145-0.028,0.201-0.083l1.601-1.601l1.601,1.601
				c0.055,0.055,0.127,0.083,0.201,0.083c0.073,0,0.145-0.028,0.201-0.083c0.111-0.111,0.111-0.29,0-0.401L254.049,114.058z"/>
		</g>
	</g>
	<g>
		<rect x="513.567" y="200.372" style="fill:#09136E;" width="2.834" height="34.149"/>
		<circle style="fill:#D42190;" cx="514.983" cy="213.085" r="3.45"/>
		<rect x="523.258" y="200.372" style="fill:#09136E;" width="2.834" height="34.149"/>
		<path style="fill:#D42190;" d="M528.125,228.361c0,1.905-1.544,3.45-3.45,3.45c-1.905,0-3.45-1.544-3.45-3.45
			s1.544-3.45,3.45-3.45C526.58,224.912,528.125,226.456,528.125,228.361z"/>
		<rect x="532.95" y="200.372" style="fill:#09136E;" width="2.834" height="34.149"/>
		<path style="fill:#D42190;" d="M537.817,219.984c0,1.905-1.544,3.45-3.45,3.45s-3.45-1.544-3.45-3.45
			c0-1.905,1.544-3.45,3.45-3.45S537.817,218.079,537.817,219.984z"/>
		<rect x="542.642" y="200.372" style="fill:#09136E;" width="2.834" height="34.149"/>
		<path style="fill:#D42190;" d="M547.508,205.415c0,1.905-1.544,3.45-3.45,3.45c-1.905,0-3.45-1.545-3.45-3.45
			s1.544-3.45,3.45-3.45C545.964,201.966,547.508,203.51,547.508,205.415z"/>
	</g>
	<g>
		<path style="fill:#FFFFFF;" d="M170.579,100.069c0,1.96-1.589,3.549-3.548,3.549c-1.96,0-3.548-1.589-3.548-3.549
			c0-1.96,1.589-3.548,3.548-3.548C168.99,96.52,170.579,98.109,170.579,100.069z"/>
		<path style="fill:#FFFFFF;" d="M189.249,100.069c0,1.96-1.589,3.549-3.548,3.549c-1.96,0-3.548-1.589-3.548-3.549
			c0-1.96,1.589-3.548,3.548-3.548C187.661,96.52,189.249,98.109,189.249,100.069z"/>
		<path style="fill:#FFFFFF;" d="M207.92,100.069c0,1.96-1.589,3.549-3.548,3.549c-1.96,0-3.549-1.589-3.549-3.549
			c0-1.96,1.589-3.548,3.549-3.548C206.331,96.52,207.92,98.109,207.92,100.069z"/>
	</g>
	<g>
		<path style="fill:#FFFFFF;" d="M538.538,96.561h-11.176c-11.036,0-19.982,6.735-19.982,17.771v2.194
			c0,11.036,8.946,17.771,19.982,17.771h11.176c0.268,0,0.528-0.03,0.794-0.04c2.458,6.868-1.128,11.128-1.128,11.128
			c13.624-3.107,12.677-14.52,12.677-14.52c4.662-3.658,7.639-7.955,7.639-14.34v-2.194
			C558.52,103.296,549.574,96.561,538.538,96.561z"/>
		<g>
			<g>
				<path style="fill:#542FD0;" d="M520.319,113.651c-1.239,0-2.247,1.008-2.247,2.247c0,1.239,1.008,2.248,2.247,2.248
					c1.238,0,2.246-1.008,2.246-2.248C522.565,114.659,521.557,113.651,520.319,113.651z"/>
				<path style="fill:#542FD0;" d="M532.95,113.651c-1.239,0-2.247,1.008-2.247,2.247c0,1.239,1.008,2.248,2.247,2.248
					c1.239,0,2.248-1.008,2.248-2.248C535.198,114.659,534.19,113.651,532.95,113.651z"/>
				<path style="fill:#542FD0;" d="M545.582,113.651c-1.239,0-2.247,1.008-2.247,2.247c0,1.239,1.008,2.248,2.247,2.248
					c1.239,0,2.248-1.008,2.248-2.248C547.829,114.659,546.821,113.651,545.582,113.651z"/>
			</g>
		</g>
	</g>
	<g>
		<polygon style="fill:#542FD0;" points="464.318,157.756 462.453,156.168 460.588,154.581 458.723,152.993 452.492,157.537 
			455.728,160.291 457.593,161.878 460.829,164.632 		"/>
		<g>
			<path style="fill:#542FD0;" d="M464.888,139.928c0,0-13.77,1.572-19.543,11.131c0,0-2.013,3.406,2.17,1.847
				c0,0,7.391-2.669,10.867-1.778l6.777-10.97"/>
			<path style="fill:#542FD0;" d="M476.23,149.581c0,0,0.649,13.844-7.865,21.071c0,0-3.041,2.532-2.17-1.847
				c0,0,1.453-7.723,0.019-11.011l9.746-8.443"/>
		</g>
		<path style="fill:#D42190;" d="M487.761,137.866c-0.204,0.239-0.415,0.466-0.63,0.69l-17.732,19.407
			c-1.426,1.561-3.831,1.712-5.44,0.342l-5.725-4.873c-1.609-1.37-1.845-3.768-0.531-5.425l16.327-20.602
			c0.183-0.251,0.377-0.493,0.581-0.732c1.208-1.419,2.798-2.567,4.512-3.446c4.494-2.313,9.814-2.806,11.166-1.656
			c1.676,1.427,1.892,6.759,0.153,11.527C489.814,134.834,488.93,136.493,487.761,137.866z"/>
		<path style="fill:#542FD0;" d="M490.44,133.097c-5.21-5.885-9.024-8.616-11.319-9.871c4.494-2.313,9.814-2.806,11.166-1.656
			C491.964,122.997,492.179,128.329,490.44,133.097z"/>
		<g>
			<path style="fill:#FFFFFF;" d="M482.775,138.849c-1.96,2.302-5.414,2.58-7.717,0.621c-2.302-1.96-2.58-5.414-0.621-7.717
				c1.96-2.302,5.415-2.58,7.717-0.62C484.456,133.091,484.734,136.546,482.775,138.849z"/>
			<path style="fill:#542FD0;" d="M474.739,139.844c-2.506-2.133-2.809-5.906-0.676-8.412c2.132-2.505,5.906-2.809,8.411-0.676
				c2.506,2.133,2.809,5.906,0.677,8.411C481.017,141.674,477.244,141.977,474.739,139.844z M481.835,131.507
				c-2.092-1.78-5.242-1.527-7.022,0.564c-1.78,2.092-1.527,5.242,0.565,7.022c2.092,1.781,5.242,1.527,7.022-0.565
				C484.18,136.438,483.926,133.288,481.835,131.507z"/>
		</g>
	</g>
	<polygon style="fill:#D42190;" points="299.575,164.964 277.161,152.927 276.822,178.367 283.084,174.678 293.051,191.6 
		303.281,185.575 293.313,168.653 	"/>
	<g>
		<g>
			<path style="fill:#11112B;" d="M620.414,242.426c-1.947,0.584-3.88,1.216-5.796,1.896c-0.351,0.125-0.768,0.244-1.074,0.031
				c-0.202-0.14-0.294-0.387-0.375-0.619c-1.458-4.169-2.501-8.202-3.61-12.413c-1.367-5.19-5.858-8.956-8.08-13.842
				c-1.687-3.709-1.929-8.238,0.111-11.764c1.049-1.813,2.944-3.749,2.61-6.035c-0.186-1.275-0.8-2.286-0.776-3.648
				c0.021-1.188,0.27-2.372,0.616-3.505c0.75-2.46,1.893-4.873,1.872-7.444c-0.016-1.985-0.741-3.863-1.734-5.555
				c-0.512-0.872-1.099-1.697-1.713-2.499c-0.424-0.555-1.467-1.402-1.647-2.065c-0.26-0.96,0.418-3.148,0.842-4.036
				c0.613-1.284,1.717-1.853,3.126-1.848c4.159,0.014,8.437,0.762,11.697,3.52c3.333,2.82,5.313,7.021,5.995,11.333
				c0.437,2.763,0.399,5.663,1.544,8.215c1.322,2.948,4.021,4.997,6.15,7.426c2.452,2.798,3.519,5.468,2.466,9.059
				c-1.06,3.616-0.136,8.718,1.875,11.839c1.134,1.76,2.731,3.175,3.965,4.866c2.258,3.094,3.209,7.111,2.576,10.889
				c-0.05,0.299-0.117,0.612-0.318,0.838c-0.176,0.198-0.432,0.303-0.68,0.397C633.772,239.832,626.873,240.489,620.414,242.426z"/>
		</g>
		<g>
			<path style="fill:#D42190;" d="M607.823,169.652c0.329,0.298,0.648,0.667,0.963,1.111c1.599,2.258,2.381,5.071,2.228,7.83
				c-0.137,2.484-0.613,5.247-3.218,6.336c-0.377,0.158-0.821,0.256-1.185,0.068c-0.561-0.289-0.621-1.051-0.624-1.682
				c-0.024-4.912-1.096-9.817-3.125-14.291C604.938,168.375,606.463,168.416,607.823,169.652z"/>
		</g>
		<g>
			<path style="fill:#11112B;" d="M603.539,195.702c-1.16,1.317-2.421,2.545-3.795,3.636c-0.915,0.726-1.917,1.295-2.864,1.968
				c-0.689,0.491-1.145,0.995-1.974,1.265c-3.982,1.294-9.014,1.179-12.503-1.324c-7.384-5.297-7.362-14.812-6.384-22.842
				c0.032-0.259,0.066-0.528,0.203-0.75c0.472-0.765,1.7-0.474,2.404-0.925c2.302-1.478,7.211-1.495,9.829-1.239
				c3.534,0.346,7.075-0.452,10.649-0.113c1.612,0.153,3.104,0.767,4.577,1.401c1.273,0.549,4.603,0.31,5.219,0.943
				c0.777,0.797,0.223,2.769,0.078,3.711c-0.206,1.334,0.082,2.282,0.187,3.568c0.258,3.162-2.558,6.909-4.402,9.237
				C604.367,194.736,603.96,195.225,603.539,195.702z"/>
		</g>
		<g>
			<path style="fill:#FFC19D;" d="M601.997,217.73c-0.134,0.096-0.278,0.182-0.421,0.268c-3.273,1.895-7.092,2.708-10.193,4.929
				c-3.685,2.632-7.169,4.805-10.011,8.461c-0.172,0.23-0.44,0.479-0.699,0.354c-0.153-0.086-0.211-0.278-0.249-0.459
				c-0.919-4.183-0.928-8.423-1.627-12.615c-0.211-1.263-0.823-2.393-0.804-3.694c0.029-1.646,1.302-2.709,2.335-3.828
				c0.344-0.364,0.603-0.785,0.823-1.225c0.565-1.206,0.718-2.651,0.727-3.962c0.019-1.464-0.268-2.919-0.364-4.374
				c-0.01-0.22-0.019-0.45-0.019-0.67c-0.029-1.732,1.292-1.215,2.622-1.215h0.344c3.398,0.01,6.805,0.096,10.184-0.364
				c0.086-0.019,0.182-0.019,0.239,0.048c0.038,0.048,0.038,0.115,0.038,0.172c-0.038,1.885,0.029,3.771,0.23,5.637
				c0.01,0.067,0.01,0.134,0.019,0.201c0.172,1.608,0.124,3.675,1.426,4.833c1.79,1.627,4.565,0.957,6.556,2.077
				C605.347,213.538,603.462,216.773,601.997,217.73z"/>
		</g>
		<g>
			<path style="fill:#E89C77;" d="M595.154,205.191c-0.574,0.66-1.235,1.235-1.866,1.665c-2.249,1.522-4.967,2.173-7.647,2.67
				c-1.474,0.268-2.996,0.498-4.489,0.392c0.565-1.206,0.718-2.651,0.727-3.962c0.019-1.464-0.268-2.919-0.364-4.374
				c0.201-0.201,0.469-0.402,0.813-0.641c0.68-0.469,1.397-0.881,2.134-1.244c3.398,0.01,6.805,0.096,10.184-0.364
				c0.086-0.019,0.182-0.019,0.239,0.048c0.038,0.048,0.038,0.115,0.038,0.172C594.886,201.44,594.953,203.325,595.154,205.191z"/>
		</g>
		<g>
			<g>
				<path style="fill:#FFC19D;" d="M578.535,441.447c1.675-0.812,3.562-0.864,5.386-0.845c1.127,0.012,4.146,0.621,4.679-0.696
					c0.186-0.46,0.136-0.976,0.091-1.47c-0.031-0.336-0.058-0.672-0.082-1.008c-0.147-2.049,0.012-4.124-0.191-6.154
					c-0.281-2.805-0.436-5.622-0.502-8.44c-0.061-2.601,0.508-5.196,0.691-7.809c0.383-5.493,0.28-11.004,0.178-16.504
					c-0.004-0.203-0.019-0.431-0.175-0.562c-0.132-0.111-0.322-0.112-0.495-0.106c-3.88,0.125-7.752,0.478-11.59,1.056
					c-0.474,0.071-1.004,0.181-1.264,0.584c-0.195,0.301-0.183,0.688-0.164,1.046c0.266,4.927,0.262,9.757,0.852,14.639
					c0.641,5.294,1.244,10.592,1.892,15.885C578.264,434.509,578.495,437.977,578.535,441.447z"/>
			</g>
			<g>
				<path style="fill:#542FD0;" d="M590.206,445.644c-0.124,0.23-0.354,0.402-0.632,0.536c-0.584,0.277-1.388,0.354-1.876,0.402
					c-8.04,0.708-16.213,1.359-24.263,0.517c-0.306-0.029-0.622-0.067-0.852-0.259c-0.373-0.306-0.393-0.842-0.373-1.321
					c0.019-0.785,0.077-1.665,0.507-2.307c0.086-0.153,0.21-0.287,0.354-0.411c0.344-0.278,0.785-0.421,1.206-0.555
					c3.273-1.043,7.016-1.981,10.021-3.637c2.335-1.292,3.101-5.628,3.005-8.021c-0.019-0.402-0.057-0.823,0.048-1.225
					c0.115-0.392,0.411-0.766,0.814-0.833c0.411-0.057,0.804,0.211,1.014,0.555c0.22,0.345,0.287,0.766,0.354,1.168
					c0.89-0.775,2.096-1.053,3.264-1.196c1.369-0.172,2.757-0.182,4.135-0.191c1.531-0.019,1.953,0.306,2.086,1.761
					c0.144,1.598,0.287,3.187,0.431,4.785c0.192,2.22,0.393,4.431,0.594,6.642c0.086,0.919,0.163,1.847,0.249,2.766
					C590.321,445.099,590.34,445.396,590.206,445.644z"/>
			</g>
			<g>
				<path style="fill:#FFFFFF;" d="M590.206,445.644c-0.124,0.23-0.354,0.402-0.632,0.536c-0.584,0.277-1.388,0.354-1.876,0.402
					c-8.04,0.708-16.213,1.359-24.263,0.517c-0.306-0.029-0.622-0.067-0.852-0.259c-0.373-0.306-0.393-0.842-0.373-1.321
					c0.019-0.785,0.077-1.665,0.507-2.307c9.112,0.488,18.281,0.096,27.325-1.158c0.086,0.919,0.163,1.847,0.249,2.766
					C590.321,445.099,590.34,445.396,590.206,445.644z"/>
			</g>
			<path style="fill:#FFFFFF;" d="M587.452,435.158c0,1.726-1.399,3.125-3.125,3.125c-1.726,0-3.125-1.399-3.125-3.125
				s1.399-3.125,3.125-3.125C586.053,432.033,587.452,433.432,587.452,435.158z"/>
		</g>
		<g>
			<g>
				<path style="fill:#FFC19D;" d="M641.328,425.612c1.08-1.516,2.711-2.466,4.322-3.325c0.994-0.53,3.936-1.443,3.772-2.854
					c-0.057-0.493-0.349-0.922-0.625-1.334c-0.188-0.28-0.373-0.561-0.555-0.845c-1.112-1.727-1.967-3.625-3.119-5.308
					c-1.592-2.327-3.078-4.724-4.488-7.166c-1.301-2.254-2.045-4.803-3.139-7.183c-2.298-5.003-5.031-9.79-7.759-14.568
					c-0.1-0.176-0.224-0.369-0.423-0.409c-0.169-0.034-0.336,0.057-0.485,0.144c-3.344,1.97-6.573,4.136-9.663,6.485
					c-0.381,0.29-0.794,0.641-0.83,1.118c-0.027,0.358,0.169,0.691,0.358,0.997c2.596,4.196,4.909,8.437,7.768,12.438
					c3.101,4.338,6.172,8.698,9.279,13.032C637.763,419.654,639.63,422.586,641.328,425.612z"/>
			</g>
			<g>
				<path style="fill:#542FD0;" d="M653.583,423.699c0.001,0.261-0.118,0.522-0.297,0.773c-0.379,0.523-1.048,0.976-1.453,1.252
					c-6.715,4.477-13.576,8.968-21.043,12.089c-0.283,0.122-0.578,0.239-0.871,0.182c-0.475-0.09-0.748-0.551-0.961-0.98
					c-0.359-0.698-0.731-1.498-0.661-2.267c0.002-0.176,0.047-0.353,0.113-0.531c0.169-0.409,0.487-0.746,0.792-1.065
					c2.372-2.485,5.206-5.103,7.049-7.997c1.43-2.254,0.022-6.426-1.209-8.479c-0.21-0.344-0.445-0.695-0.545-1.098
					c-0.087-0.399-0.006-0.869,0.315-1.121c0.334-0.248,0.806-0.201,1.156,0.001c0.359,0.197,0.619,0.534,0.871,0.855
					c0.409-1.107,1.335-1.929,2.29-2.615c1.118-0.807,2.332-1.481,3.536-2.151c1.335-0.751,1.86-0.668,2.675,0.545
					c0.893,1.334,1.78,2.659,2.673,3.993c1.233,1.857,2.469,3.7,3.706,5.544c0.516,0.765,1.029,1.543,1.545,2.308
					C653.422,423.165,653.581,423.416,653.583,423.699z"/>
			</g>
			<g>
				<path style="fill:#FFFFFF;" d="M653.583,423.699c0.001,0.261-0.118,0.522-0.297,0.773c-0.379,0.523-1.048,0.976-1.453,1.252
					c-6.715,4.477-13.576,8.968-21.043,12.089c-0.283,0.122-0.578,0.239-0.871,0.182c-0.475-0.09-0.748-0.551-0.961-0.98
					c-0.359-0.698-0.731-1.498-0.661-2.267c8.23-3.941,16.087-8.683,23.423-14.12c0.516,0.765,1.029,1.543,1.545,2.308
					C653.422,423.165,653.581,423.416,653.583,423.699z"/>
			</g>
			<path style="fill:#FFFFFF;" d="M646.138,415.818c0.828,1.515,0.271,3.413-1.244,4.241c-1.514,0.828-3.413,0.271-4.241-1.244
				c-0.828-1.514-0.271-3.413,1.244-4.241C643.411,413.746,645.31,414.303,646.138,415.818z"/>
		</g>
		<g>
			<path style="fill:#542FD0;" d="M572.238,408.163h21.871c-0.122,0-2.462-37.743-2.745-41.607
				c-1.047-14.338-1.304-28.795-0.359-43.153c0.698-10.608,0.924-21.304,1.057-31.943c0.005-0.35-0.002-0.735-0.191-0.995
				c-0.2-0.277-0.534-0.315-0.835-0.335c-1.428-0.094-2.851-0.197-4.27-0.304c-3.455-0.261-6.954-0.387-10.396-0.778
				c-1.288-0.146-2.438-0.707-3.718-0.968c-1.633-0.333-3.268-0.658-4.901-0.988c-0.162-0.033-0.362-0.052-0.461,0.081
				c-0.055,0.074-0.059,0.172-0.06,0.264c-0.085,5.603-0.737,11.155-0.781,16.792c-0.133,16.78,1.856,33.478,2.316,50.238
				C569.258,372.399,570.368,390.356,572.238,408.163z"/>
		</g>
		<g>
			<path style="fill:#542FD0;" d="M640.458,394.155c-1.341-3.567-3.276-8.799-3.432-9.19c-4.514-11.266-10.019-21.936-14.394-33.219
				c-1.238-3.192-1.845-6.588-2.22-9.979c-0.325-2.941,0.06-5.674-0.111-8.573c-0.422-7.123-0.106-14.259-0.303-21.388
				c-0.129-4.66-0.492-9.333-1.427-13.906c-0.475-2.321-1.096-4.615-1.908-6.842c-0.361-0.989-0.818-1.946-1.089-2.957
				c-0.186-0.695,0.035-1.561-0.729-2.023c-0.272-0.164-0.589-0.149-0.892-0.13c-2.581,0.163-5.162,0.325-7.744,0.488
				c-3.045,0.192-6.099,0.399-9.077,1.104c-1.029,0.243-2.016,0.518-3.069,0.63c-1.125,0.12-2.753-0.132-3.666,0.672
				c-0.587,0.517-0.712,1.372-0.76,2.153c-0.3,4.868,0.873,9.674,0.858,14.536c-0.014,4.587,0.595,9.034,1.093,13.585
				c1.437,13.146,4.357,26.108,8.405,38.684c5.21,16.184,12.941,32.207,20.23,47.334
				C626.869,401.297,633.734,397.853,640.458,394.155z"/>
		</g>
		<g>
			<path style="fill:#FFC19D;" d="M574.689,257.348c0.444,2.039,0.447,4.197-0.206,6.512c-0.666,2.364-2.692,2.403-4.885,2.004
				c-2.822-0.513-5.676-1.116-8.207-2.466c-3.356-1.789-5.932-4.79-7.869-8.063c-1.938-3.273-3.302-6.845-4.782-10.348
				c-0.307-0.727-0.619-1.452-0.935-2.175c-0.82-1.878-1.563-3.904-2.661-5.626c-1.021-1.602-1.35-3.516-1.864-5.338
				c-0.59-2.092-1.378-4.128-2.349-6.072c-0.451-0.903-0.898-1.8-1.558-2.563c-0.344-0.397-1.472-1.445-1.239-2.029
				c0.029-0.073,0.099-0.121,0.164-0.165c0.856-0.567,1.586-1.245,2.446-1.821c0.231-0.155,2.774-1.845,2.768-1.855
				c2.982,4.444,6.369,8.615,10.105,12.447c5.039,5.168,10.032,10.402,14.52,16.064C570.95,249.403,573.768,253.121,574.689,257.348
				z"/>
		</g>
		<g>
			<path style="fill:#D42190;" d="M574.263,240.814c0.121-4.073,0.635-8.225,1.182-12.12c0.411-2.927,0.582-5.88,0.772-8.827
				c0.049-0.763,0.099-1.525,0.156-2.288c0.044-0.59-0.009-1.277,0.13-1.842c0.145-0.586,0.551-1.201,0.872-1.706
				c0.205-0.322,0.74-1.341,1.119-1.45c-1.097,0.315-2.204,0.635-3.206,1.18c-1.084,0.589-1.643,1.363-2.353,2.318
				c-0.692,0.932-1.415,1.817-2.027,2.817c-1.286,2.105-2.32,4.349-3.364,6.58c-2.05,4.378-3.744,8.912-5.301,13.487
				C566.255,239.558,570.278,240.086,574.263,240.814z"/>
		</g>
		<g>
			<path style="fill:#FFC19D;" d="M577.534,183.842c-0.004,0.137-0.008,0.274-0.012,0.41c-0.062,1.738-0.607,3.369-0.613,5.097
				c-0.007,1.682-0.067,3.302,0.184,4.977c0.482,3.221,1.663,6.442,3.785,8.952c0.914,1.081,2.068,2.159,3.41,2.677
				c1.87,0.722,3.695-0.149,5.422-0.766c1.92-0.686,3.673-1.789,5.192-3.143c2.363-2.106,3.973-4.702,5.875-7.188
				c1.796-2.346,1.501-5.549,2.546-8.273c1.948-5.078,1.987-10.209-2.029-14.267c-2.176-2.199-5.027-3.631-7.977-4.563
				c-2.273-0.718-4.712-1.161-7.037-0.637c-2.076,0.469-3.951,1.708-5.289,3.363c-2.177,2.694-2.544,6.139-3.183,9.413
				C577.563,181.147,577.569,182.519,577.534,183.842z"/>
		</g>
		<g>
			<path style="fill:#D42190;" d="M569.194,292.998c-1.052,0.007-2.002-0.124-2.243-0.643c-0.221-0.477-0.173-1.03-0.124-1.554
				c0.752-7.886,0.925-15.826,0.52-23.738c-0.18-3.524-0.691-6.692-1.392-10.094c-0.743-3.603-1.912-7.151-2.167-10.839
				c-0.332-4.804,1.094-8.719,2.77-13.04c1.791-4.617,3.405-9.141,5.791-13.518c1.004-1.842,2.015-4.382,3.586-5.812
				c0.607-0.553,1.359-0.907,2.094-1.254c0.747-0.352,1.42-0.809,2.144-1.214c-0.046,1.032-0.018,2.08,0.254,3.076
				c0.468,1.713,1.811,3.385,3.492,3.999c1.786,0.652,3.836,0.396,5.53-0.407c1.584-0.75,3.01-1.834,4.229-3.089
				c1.368-1.408,2.341-2.767,2.84-4.687c-0.127,0.489,8.563,2.313,9.263,2.479c1.323,0.313,2.756,0.492,4.114,0.791
				c1.028,0.227,2.197,0.429,2.905,1.269c-1.671,1.966-2.71,4.177-2.926,6.771c-0.21,2.686-0.676,5.65-0.163,8.316
				c0.377,1.958,0.97,3.616,1.099,5.658c0.588,9.284,0.954,18.586,1.877,27.845c0.461,4.624,1.059,9.237,1.891,13.81
				c0.811,4.457,1.209,9.005,2.238,13.422c0.075,0.322,0.148,0.678-0.008,0.97c-0.209,0.392-3.671,0.147-4.32,0.187
				c-2.059,0.128-4.118,0.245-6.178,0.352c-4.12,0.212-8.243,0.381-12.366,0.505c-4.768,0.144-9.538,0.229-14.308,0.254
				c-2.45,0.013-4.899,0.011-7.349-0.007C571.716,292.805,570.388,292.99,569.194,292.998z"/>
		</g>
		<g>
			<path style="fill:#11112B;" d="M584.098,166.414c0.259,0.003,0.506,0.068,0.711,0.229c3.864-3.223,9.324-2.416,13.919-1.111
				c4.875,1.385,8.268,5.381,9.897,10.053c1.772,5.083,0.431,11.622-2.224,16.192c-0.877,1.511-1.959,2.807-3.068,4.145
				c-0.951,1.147-1.699,2.257-3.167,2.813c0.568-2.08,1.136-4.16,1.704-6.24c0.05-0.182,0.1-0.375,0.05-0.558
				c-0.172-0.625-1.138-0.445-1.673-0.813c-0.428-0.294-0.499-0.884-0.566-1.4c-0.279-2.141-1.139-4.708-3.077-5.883
				c-1.188-0.72-2.405-1.397-3.536-2.207c-2.926-2.096-5.22-5.063-6.511-8.423c-0.2-0.52-0.4-1.081-0.848-1.41
				s-1.232-0.252-1.404,0.278c-0.107-0.32-0.474-0.497-0.81-0.481c-0.337,0.015-0.648,0.182-0.93,0.366
				c-1.517,0.983-2.09,2.35-2.76,3.938c-0.812,1.924-1.451,3.939-1.994,5.953c-0.994,3.684-1.045,7.666-1.218,11.48
				c-0.021,0.465-0.031,0.965,0.222,1.356c-1.137-2.494-1.642-5.042-1.988-7.74c-0.142-1.109-0.395-2.05-0.354-3.206
				c0.048-1.351,0.233-2.696,0.551-4.01c0.423-1.741,1.069-3.509,1.664-5.18c0.672-1.885,1.862-3.696,3.145-5.235
				c0.898-1.077,1.937-2.088,3.242-2.666C583.388,166.516,583.753,166.41,584.098,166.414z"/>
		</g>
		<g>
			<path style="fill:#E89C77;" d="M587.335,192.814c0.297-0.005,0.582-0.036,0.834-0.095c-1.032-0.499-1.734-1.571-1.853-2.706
				c-0.13-1.236,0.61-2.569,1.066-3.674c-0.654,0.749-1.278,1.523-1.871,2.32c-0.477,0.64-1.301,1.411-1.314,2.26
				c-0.01,0.677,0.521,1.267,1.142,1.538C585.891,192.698,586.645,192.826,587.335,192.814z"/>
		</g>
		<g>
			<g>
				<path style="fill:#0A0A16;" d="M590.244,181.175c-0.326-0.128-0.43-0.477-0.324-0.808c0.116-0.361,0.583-0.453,0.914-0.476
					c0.987-0.067,1.951,0.268,2.884,0.599c1.237,0.439,2.29,0.931,3.209,1.887c0.097,0.101,0.2,0.222,0.185,0.361
					c-0.015,0.138-0.15,0.239-0.287,0.262c-0.137,0.023-0.277-0.013-0.411-0.05c-1.131-0.305-2.263-0.611-3.394-0.916
					C592.084,181.783,591.146,181.529,590.244,181.175z"/>
			</g>
			<g>
				<path style="fill:#0A0A16;" d="M591.389,184.552c0.571-0.74,1.719-0.818,2.421-0.155c0.286,0.27,0.439,0.656,0.497,1.044
					c0.14,0.929-0.163,1.857-0.823,2.535c-0.367,0.378-0.887,0.667-1.405,0.57c-0.459-0.087-0.817-0.462-1.032-0.877
					C590.542,186.688,590.715,185.426,591.389,184.552z"/>
			</g>
		</g>
		<g>
			<g>
				<path style="fill:#0A0A16;" d="M585.67,180.412c0.35-0.015,0.562-0.312,0.569-0.659c0.008-0.379-0.404-0.618-0.71-0.747
					c-0.911-0.384-1.933-0.38-2.922-0.37c-1.313,0.013-2.468,0.137-3.648,0.743c-0.124,0.064-0.261,0.145-0.292,0.281
					c-0.031,0.136,0.064,0.275,0.186,0.342c0.122,0.066,0.266,0.077,0.405,0.087c1.169,0.079,2.338,0.157,3.507,0.236
					C583.733,180.389,584.702,180.454,585.67,180.412z"/>
			</g>
			<g>
				<path style="fill:#0A0A16;" d="M583.491,183.233c-0.299-0.885-1.36-1.332-2.239-0.933c-0.358,0.162-0.628,0.478-0.81,0.826
					c-0.434,0.833-0.449,1.81-0.045,2.665c0.225,0.476,0.622,0.92,1.143,0.995c0.463,0.067,0.923-0.171,1.261-0.495
					C583.598,185.529,583.844,184.279,583.491,183.233z"/>
			</g>
		</g>
		<g>
			<path style="fill:#FFC19D;" d="M627.403,269.164c0.165-0.723,0.245-1.468,0.235-2.225c-0.065-5.08-0.958-9.972-1.867-14.943
				c-0.499-2.727-1.081-5.439-1.679-8.146c-0.22-0.993-0.143-2.22-1.097-2.671c-0.924-0.438-2.427,0.074-3.33,0.343
				c-2.355,0.702-4.847,1.572-7.299,1.828c-2.053,0.214-3.221,0.341-3.015,2.749c0.456,5.32,1.846,10.843,2.965,16.062
				c0.531,2.476,1.138,4.961,2.249,7.237c0.899,1.84,2.572,4.826,4.561,5.622c2.102,0.842,4.908-0.196,6.284-1.852
				C626.395,271.985,627.071,270.619,627.403,269.164z"/>
		</g>
		<g>
			<path style="fill:#D42190;" d="M607.345,249.699c0.105,0.465,0.21,0.931,0.315,1.396c0.043,0.19,0.1,0.4,0.266,0.501
				c0.616,0.375,2.995-0.698,3.838-0.78c1.403-0.137,2.619-0.4,3.994-0.801c0.86-0.251,10.363-2.875,10.368-2.852
				c-0.842-3.981-1.905-7.915-3.189-11.775c-1.239-3.723-2.402-7.562-3.886-11.166c-1.388-3.37-3.018-6.929-5.83-9.361
				c-1.096-0.948-2.663-1.488-4.024-0.99c-4.146,1.518-5.325,6.565-5.687,10.508c-0.53,5.772,0.739,11.531,1.993,17.13
				C606.115,244.24,606.728,246.97,607.345,249.699z"/>
		</g>
		<g>
			<path style="fill:#FFC19D;" d="M604.766,263.048c4.739,0.251,9.477,0.529,14.215,0.807c2.415,0.142,6.094,0.328,7.907,2.243
				c1.874,1.979-0.181,5.722-1.641,7.331c-4.228,4.661-11.1,4.323-16.84,3.695c-6.68-0.73-12.991-3.213-19.279-5.438
				c-5.063-1.792-10.29-3.333-15.67-3.738c-4.939-0.372-10.508,0.879-15.25-0.866c-2.235-0.822-4.16-2.462-5.327-4.538
				c1.449-1.818,4.234-1.515,6.532-1.163c7.396,1.133,14.906,0.615,22.355,0.766C589.438,262.304,597.104,262.642,604.766,263.048z"
				/>
		</g>
		<g>
			<rect x="587.601" y="259.552" style="fill:#542FD0;" width="13.708" height="3.541"/>
			<polygon style="fill:#09136E;" points="589.885,263.093 548.556,263.093 540.957,230.22 582.286,230.22 			"/>
		</g>
		<polygon style="fill:#FFFFFF;" points="562.852,243.753 558.83,250.771 567.434,250.771 		"/>
		<g>
			<path style="fill:#FFC19D;" d="M537.609,221.921c-0.12-0.091-0.243-0.179-0.369-0.263c-0.864-0.578-1.908-1.008-2.614-1.784
				c-0.435-0.478-0.773-1.033-1.118-1.579c-0.777-1.227-1.607-2.421-2.485-3.578c-0.398-0.524-2.086-1.995-0.964-2.616
				c0.344-0.191,0.769-0.115,1.153-0.032c-0.118-0.025-0.412-0.543-0.502-0.652c-0.188-0.229-0.394-0.447-0.572-0.685
				c-0.335-0.449-0.581-0.958-0.926-1.41c-0.296-0.388-0.591-0.79-0.738-1.256c-0.146-0.465-0.121-1.013,0.185-1.393
				c0.306-0.381,0.93-0.507,1.297-0.185c-0.329-0.463-0.535-1.012-0.591-1.577c-0.021-0.205-0.02-0.418,0.057-0.609
				c0.14-0.344,0.672-0.534,1.021-0.432c0.179,0.052,0.328,0.175,0.469,0.297c0.506,0.441,0.979,0.927,1.348,1.488
				c-0.118-0.292-0.077-0.642,0.104-0.899c0.81-1.15,2.087,0.645,2.515,1.294c0.723,1.095,1.26,2.314,2.12,3.315
				c0.517,0.603,1.137,1.109,1.765,1.596c0.691,0.536,1.396,1.053,2.115,1.551c-0.173-0.12-0.299-0.833-0.369-1.04
				c-0.136-0.4-0.266-0.802-0.379-1.209c-0.289-1.042-0.54-2.169-0.298-3.245c0.034-0.151,0.081-0.307,0.191-0.415
				c0.093-0.092,0.221-0.139,0.347-0.176c0.137-0.041,0.282-0.074,0.424-0.049c0.508,0.09,0.716,0.648,0.859,1.071
				c0.209,0.618,0.413,1.238,0.61,1.86c0.446,1.411,0.718,2.972,1.397,4.284c1.296,2.505,2.026,5.397,2.981,8.083
				c0.039,0.111,0.079,0.231,0.045,0.343c-0.044,0.145-0.193,0.227-0.328,0.294c-1.178,0.583-2.357,1.166-3.535,1.749
				c-0.726,0.363-1.56,0.582-2.142,1.122c-0.041,0.001-0.071-0.017-0.091-0.054C539.723,223.949,538.774,222.806,537.609,221.921z"
				/>
		</g>
		<g>
			<g>
				<path style="fill:#09136E;" d="M588.714,292.966c0.357,8.057,1.423,16.053,2.295,24.064c0.052,0.475,0.802,0.48,0.75,0
					c-0.872-8.011-1.938-16.008-2.295-24.064C589.443,292.485,588.693,292.482,588.714,292.966L588.714,292.966z"/>
			</g>
		</g>
		
			<path style="fill:none;stroke:#09136E;stroke-width:0.7;stroke-linecap:round;stroke-linejoin:round;stroke-miterlimit:10;stroke-dasharray:3,3;" d="
			M608.336,292.824c0.422,13.068,1.202,29.029,2.34,42.054c0.315,3.608,0.661,7.229,1.534,10.744
			c0.794,3.196,2.016,6.268,3.234,9.328c5.509,13.837,11.948,27.273,17.309,41.184"/>
		
			<path style="fill:none;stroke:#09136E;stroke-width:0.7;stroke-linecap:round;stroke-linejoin:round;stroke-miterlimit:10;stroke-dasharray:3,3;" d="
			M590.028,309.415c-1.192,3.543-2.259,7.127-3.199,10.745c-7.278,28.012-5.849,57.871-2.941,86.445"/>
		<g>
			<g>
				<path style="fill:#09136E;" d="M584.605,293.331c0.334,3.232,0.424,6.633,1.309,9.775c0.697,2.475,2.116,4.831,4.475,6.016
					c0.43,0.216,0.81-0.431,0.379-0.648c-2.382-1.197-3.666-3.618-4.275-6.12c-0.713-2.928-0.828-6.033-1.138-9.023
					C585.306,292.855,584.556,292.85,584.605,293.331L584.605,293.331z"/>
			</g>
		</g>
		<g>
			<g>
				<path style="fill:#09136E;" d="M603.967,220.195c-1.658,6.055-1.523,12.309,0.184,18.334c0.906,3.197,1.689,6.4,2.45,9.635
					c0.188,0.799,0.377,1.598,0.568,2.397c0.088,0.368,0.125,1.029,0.397,1.341c0.595,0.68,1.84-0.046,2.511-0.244
					c0.462-0.136,0.265-0.86-0.199-0.723c-0.38,0.112-1.393,0.606-1.697,0.434c-0.273-0.155-0.384-1.407-0.46-1.726
					c-0.341-1.438-0.679-2.878-1.012-4.318c-0.635-2.743-1.441-5.423-2.149-8.146c-1.434-5.515-1.373-11.293,0.131-16.785
					C604.818,219.928,604.095,219.73,603.967,220.195L603.967,220.195z"/>
			</g>
		</g>
		<g>
			<g>
				<path style="fill:#09136E;" d="M567.966,230.422c1.858-5.949,4.756-11.516,8.551-16.458c0.294-0.383-0.357-0.757-0.648-0.379
					c-3.833,4.993-6.75,10.63-8.626,16.638C567.099,230.685,567.823,230.882,567.966,230.422L567.966,230.422z"/>
			</g>
		</g>
		<g>
			<g>
				<path style="fill:#D67F5C;" d="M612.77,263.884c2.897,0.156,5.749,0.732,8.483,1.701c0.456,0.162,0.652-0.563,0.199-0.723
					c-2.797-0.991-5.721-1.569-8.683-1.728C612.288,263.108,612.289,263.858,612.77,263.884L612.77,263.884z"/>
			</g>
		</g>
		<g>
			<g>
				<path style="fill:#D67F5C;" d="M581.812,204.861c0.749,0.713,1.594,1.417,2.644,1.596c1.128,0.192,2.367-0.032,3.461-0.32
					c1.215-0.32,2.307-0.876,3.434-1.417c1.168-0.56,2.258-1.159,3.281-1.96c0.304-0.238-0.124-0.66-0.424-0.424
					c-0.916,0.718-1.904,1.272-2.953,1.768c-1.021,0.482-2.007,1.016-3.095,1.342c-1.005,0.301-2.077,0.512-3.131,0.466
					c-1.146-0.049-1.991-0.712-2.792-1.474C581.957,204.17,581.532,204.594,581.812,204.861L581.812,204.861z"/>
			</g>
		</g>
		<g>
			<path style="fill:#E89C77;" d="M589.875,196.48c0.246,0.064,0.486,0.134,0.719,0.211c0.048,0.016,0.098,0.033,0.136,0.066
				c0.117,0.102,0.074,0.29,0.016,0.434c-0.923,2.279-3.413,4.029-5.882,3.029c-1.985-0.804-2.561-3.245-2.507-5.177
				c1.13,0.215,2.208,0.573,3.35,0.766C587.042,195.977,588.538,196.134,589.875,196.48z"/>
		</g>
		<g>
			<path style="fill:#FFC19D;" d="M606.242,186.683c0.025,0.06,0.049,0.121,0.07,0.182c0.469,1.333,0.213,2.974-0.438,4.316
				c-0.651,1.342-1.657,2.422-2.721,3.344c-1.227,1.062-3.147,1.46-3.009-0.705c0.092-1.439,0.576-2.936,1.045-4.297
				c0.668-1.941,1.842-3.872,3.793-3.722c0.349,0.027,0.702,0.129,0.955,0.391C606.066,186.327,606.164,186.498,606.242,186.683z"/>
		</g>
		<g>
			<g>
				<path style="fill:#09136E;" d="M616.408,291.584c1.056,3.225,1.55,6.603,2.139,9.935c0.084,0.474,0.807,0.273,0.723-0.199
					c-0.588-3.332-1.082-6.71-2.139-9.935C616.981,290.928,616.257,291.123,616.408,291.584L616.408,291.584z"/>
			</g>
		</g>
		<g style="opacity:0.15;">
			<g>
				<g>
					<path style="fill:#FFFFFF;" d="M587.009,169.442c1.859,0.618,3.049,2.619,4.082,4.16c1.11,1.656,2.127,3.376,3.311,4.983
						c1.969,2.672,4.543,5.104,7.891,5.798c0.471,0.098,0.672-0.625,0.199-0.723c-3.75-0.778-6.359-3.782-8.4-6.82
						c-1.086-1.617-2.079-3.296-3.228-4.871c-0.974-1.336-2.031-2.708-3.656-3.249C586.75,168.566,586.553,169.29,587.009,169.442
						L587.009,169.442z"/>
				</g>
			</g>
			<g>
				<g>
					<path style="fill:#FFFFFF;" d="M593.183,171.154c3.282,5.256,8.125,9.446,13.811,11.914c0.438,0.19,0.821-0.456,0.378-0.648
						c-5.573-2.418-10.323-6.49-13.542-11.645C593.576,170.367,592.927,170.743,593.183,171.154L593.183,171.154z"/>
				</g>
			</g>
			<g>
				<g>
					<path style="fill:#FFFFFF;" d="M595.499,168.881c3.071,3.329,7.01,5.78,11.349,7.075c0.463,0.138,0.661-0.585,0.199-0.723
						c-4.221-1.26-8.032-3.645-11.018-6.882C595.701,167.996,595.172,168.527,595.499,168.881L595.499,168.881z"/>
				</g>
			</g>
			<g>
				<g>
					<path style="fill:#FFFFFF;" d="M613.147,175.838c4.17,2.094,4.285,7.201,4.542,11.248c0.229,3.607,0.891,7.201,3.838,9.598
						c1.471,1.197,3.211,2.082,4.485,3.511c1.48,1.659,2.204,4.002,2.291,6.195c0.086,2.181-0.365,4.289-0.085,6.479
						c0.248,1.936,0.767,3.83,1.524,5.629c1.579,3.755,4.168,6.984,7.495,9.331c0.395,0.279,0.77-0.371,0.379-0.648
						c-3.373-2.38-5.976-5.756-7.445-9.615c-0.783-2.059-1.31-4.293-1.353-6.501c-0.04-2.038,0.415-4.014,0.092-6.052
						c-0.283-1.787-0.918-3.546-2.053-4.972c-1.073-1.348-2.549-2.247-3.933-3.236c-1.898-1.357-3.202-2.983-3.84-5.254
						c-0.575-2.046-0.616-4.178-0.75-6.284c-0.243-3.813-1.046-8.188-4.808-10.077C613.095,174.974,612.715,175.621,613.147,175.838
						L613.147,175.838z"/>
				</g>
			</g>
			<g>
				<g>
					<path style="fill:#FFFFFF;" d="M614.568,192.138c2.769,3.129,5.616,6.362,7.037,10.361c1.451,4.083,1.45,8.476,1.693,12.75
						c0.211,3.696,0.612,7.483,2.172,10.886c1.493,3.258,4.083,5.838,7.317,7.369c0.434,0.205,0.815-0.441,0.378-0.648
						c-3.787-1.792-6.472-4.981-7.762-8.954c-1.233-3.799-1.302-7.828-1.514-11.779c-0.203-3.782-0.545-7.634-2.085-11.142
						c-1.559-3.551-4.163-6.499-6.706-9.373C614.777,191.245,614.248,191.777,614.568,192.138L614.568,192.138z"/>
				</g>
			</g>
			<g>
				<g>
					<path style="fill:#FFFFFF;" d="M608.224,191.472c1.429,3.415-0.324,6.84-1.924,9.837c-1.47,2.754-2.878,5.656-2.339,8.864
						c0.08,0.475,0.803,0.273,0.723-0.199c-1.125-6.689,7.102-11.915,4.263-18.7C608.763,190.834,608.037,191.027,608.224,191.472
						L608.224,191.472z"/>
				</g>
			</g>
			<g>
				<g>
					<path style="fill:#FFFFFF;" d="M612.133,188.733c-1.814,3.729-0.603,7.814,1.221,11.286c1.022,1.947,2.229,3.794,3.186,5.776
						c1.096,2.27,1.827,4.721,2.142,7.222c0.54,4.282-0.243,8.697,1.667,12.729c1.732,3.656,4.914,6.373,7.944,8.931
						c0.367,0.309,0.9-0.219,0.53-0.53c-2.888-2.438-5.916-4.999-7.655-8.428c-2.085-4.113-1.177-8.751-1.798-13.155
						c-0.571-4.049-2.294-7.498-4.302-11.001c-2.126-3.709-4.347-8.219-2.289-12.451
						C612.991,188.679,612.344,188.298,612.133,188.733L612.133,188.733z"/>
				</g>
			</g>
		</g>
		<g>
			<g>
				<path style="fill:#11112B;" d="M620.311,182.352c1.037,3.462,2.701,6.719,4.978,9.531c1.168,1.442,2.554,2.676,3.85,3.998
					c1.416,1.445,2.538,3.025,3.523,4.788c1.033,1.85,1.887,3.879,1.624,6.039c-0.234,1.918-0.776,3.776-0.893,5.715
					c-0.11,1.816,0.099,3.652,0.839,5.327c0.692,1.567,1.789,2.888,2.796,4.258c1.416,1.926,2.341,3.93,2.549,6.339
					c0.207,2.39-0.176,4.796-0.557,7.148c-0.077,0.472,0.646,0.675,0.723,0.199c0.589-3.628,1.195-7.547-0.268-11.054
					c-0.693-1.66-1.841-3.038-2.895-4.475c-1.33-1.813-2.296-3.717-2.442-6.001c-0.251-3.927,1.775-7.616,0.325-11.455
					c-1.315-3.481-3.624-6.221-6.239-8.789c-3.374-3.313-5.827-7.226-7.188-11.77C620.896,181.691,620.172,181.888,620.311,182.352
					L620.311,182.352z"/>
			</g>
		</g>
		<g>
			<g>
				<path style="fill:#D67F5C;" d="M603.976,187.776c1.093,0.189,0.584,1.946,0.344,2.62c-0.333,0.931-0.918,1.752-1.668,2.393
					c-0.294,0.251,0.132,0.674,0.424,0.424c0.915-0.782,1.59-1.83,1.929-2.986c0.285-0.971,0.513-2.791-0.869-3.03
					C603.758,187.132,603.596,187.71,603.976,187.776L603.976,187.776z"/>
			</g>
		</g>
		<g>
			<g>
				<path style="fill:#D67F5C;" d="M604.536,191.004c0.035-0.535-0.53-0.892-0.996-0.963c-0.469-0.071-0.959,0.041-1.343,0.323
					c-0.126,0.092-0.202,0.264-0.108,0.41c0.081,0.125,0.275,0.207,0.41,0.108c0.069-0.051,0.141-0.096,0.217-0.135
					c0.021-0.011,0.043-0.021,0.064-0.031c0.044-0.021-0.038,0.014,0.007-0.003c0.04-0.015,0.08-0.03,0.122-0.042
					c0.041-0.012,0.082-0.023,0.124-0.032c0.023-0.005,0.047-0.009,0.07-0.013c0.025-0.004,0.036-0.003,0.005-0.001
					c0.09-0.007,0.178-0.011,0.268-0.004c0.006,0.001,0.063,0.007,0.03,0.002c-0.037-0.005,0.044,0.008,0.043,0.008
					c0.041,0.008,0.082,0.019,0.122,0.031c0.018,0.006,0.035,0.011,0.053,0.018c0.019,0.007,0.058,0.025,0.019,0.007
					c0.038,0.018,0.076,0.037,0.112,0.059c0.016,0.01,0.032,0.02,0.048,0.031c0.024,0.016-0.016-0.018,0.02,0.016
					c0.014,0.014,0.029,0.027,0.043,0.041c0,0,0.049,0.059,0.033,0.036c-0.015-0.021,0.014,0.025,0.017,0.029
					c0.011,0.019,0.023,0.058,0.011,0.018c0.005,0.018,0.011,0.036,0.014,0.054c-0.012-0.059-0.005,0.02-0.006,0.032
					c-0.01,0.157,0.145,0.307,0.3,0.3C604.408,191.296,604.525,191.172,604.536,191.004L604.536,191.004z"/>
			</g>
		</g>
	</g>
	<g>
		<path style="fill:#D42190;" d="M549.921,353.268c2.321,2.728,4.023,5.759,5.139,8.934l-28.983,6.671l-11.223,27.542
			c-2.956-1.609-5.676-3.774-7.997-6.502c-10.124-11.897-8.687-29.73,3.21-39.854C521.965,339.935,539.798,341.371,549.921,353.268z
			"/>
		<path style="fill:#FFC655;" d="M555.945,365.238c2.294,9.956-0.909,20.8-9.234,27.884c-8.325,7.084-19.542,8.51-29.002,4.652
			l10.68-26.184L555.945,365.238z"/>
	</g>
	<g>
		<path style="fill:#542FD0;" d="M117.367,156.94c-2.354-10.375,1.019-21.656,9.712-29.004c8.693-7.348,20.379-8.793,30.217-4.743
			l-11.212,27.229L117.367,156.94z"/>
		<g>
			<g>
				<path style="fill:#D42190;" d="M147.784,153.425l-0.001-0.007l-29.506,6.687c1.151,3.31,2.912,6.472,5.32,9.321
					c10.5,12.424,29.065,13.982,41.49,3.481c6.603-5.581,10.137-13.44,10.422-21.445L147.784,153.425z"/>
				<path style="fill:#FFC655;" d="M175.446,148.276c-0.434-5.995-2.697-11.914-6.877-16.859c-2.408-2.849-5.232-5.113-8.305-6.799
					l-10.48,25.474L175.446,148.276z"/>
			</g>
		</g>
	</g>
	<g>
		<g>
			<circle style="fill:#FFC655;" cx="90.966" cy="280.356" r="3.522"/>
		</g>
		<g>
			<circle style="fill:#FFC655;" cx="660.591" cy="285.156" r="3.522"/>
		</g>
		<g>
			<circle style="fill:#FFC655;" cx="420.638" cy="60.687" r="3.522"/>
		</g>
		<g>
			<path style="fill:#FFC655;" d="M282.951,390.343c-2.14,0-3.882-1.741-3.882-3.881c0-2.139,1.741-3.881,3.882-3.881
				c2.139,0,3.881,1.741,3.881,3.881C286.831,388.601,285.09,390.343,282.951,390.343z M282.951,383.299
				c-1.744,0-3.164,1.419-3.164,3.163c0,1.744,1.42,3.163,3.164,3.163s3.163-1.419,3.163-3.163
				C286.113,384.718,284.695,383.299,282.951,383.299z"/>
		</g>
		<g>
			<path style="fill:#FFC655;" d="M207.919,73.252c-2.139,0-3.881-1.741-3.881-3.882c0-2.139,1.741-3.881,3.881-3.881
				c2.14,0,3.882,1.741,3.882,3.881C211.801,71.511,210.06,73.252,207.919,73.252z M207.919,66.208
				c-1.744,0-3.163,1.419-3.163,3.163c0,1.744,1.419,3.164,3.163,3.164c1.744,0,3.164-1.42,3.164-3.164
				C211.083,67.627,209.663,66.208,207.919,66.208z"/>
		</g>
		<g>
			<path style="fill:#FFC655;" d="M532.951,53.265c-2.14,0-3.882-1.741-3.882-3.881c0-2.14,1.741-3.882,3.882-3.882
				c2.139,0,3.881,1.741,3.881,3.882C536.831,51.524,535.09,53.265,532.951,53.265z M532.951,46.221
				c-1.744,0-3.164,1.42-3.164,3.164s1.42,3.163,3.164,3.163s3.163-1.419,3.163-3.163S534.695,46.221,532.951,46.221z"/>
		</g>
	</g>
	<g>
		<path style="fill:#D42190;" d="M352.832,336.56L352.832,336.56c-2.346,1.873-5.767,1.49-7.64-0.857l-15.115-21.456l6.03-4.825
			l17.582,19.498C355.562,331.267,355.179,334.687,352.832,336.56z"/>
		<g>
			
				<ellipse transform="matrix(0.2527 -0.9675 0.9675 0.2527 -47.1174 532.0535)" style="fill:#B19CFE;" cx="320.872" cy="296.529" rx="17.672" ry="17.672"/>
			<path style="opacity:0.3;fill:#FFFFFF;" d="M331.116,288.836c2.398,3.004,1.907,7.382-1.097,9.78
				c-3.004,2.398-7.382,1.907-9.78-1.097c-2.398-3.004-1.907-7.382,1.097-9.78C324.339,285.342,328.718,285.833,331.116,288.836z"/>
			<path style="opacity:0.3;fill:#FFFFFF;" d="M326.416,297.957c1.654,2.072,1.316,5.093-0.757,6.747
				c-2.072,1.654-5.093,1.316-6.747-0.757c-1.654-2.072-1.316-5.093,0.757-6.747C321.74,295.547,324.761,295.885,326.416,297.957z"
				/>
			<path style="fill:#542FD0;" d="M333.543,312.4c-8.751,6.987-21.555,5.551-28.542-3.2c-6.987-8.751-5.551-21.555,3.2-28.542
				c8.752-6.987,21.555-5.551,28.542,3.2S342.295,305.413,333.543,312.4z M311.491,284.779c-6.479,5.173-7.542,14.652-2.369,21.131
				c5.173,6.479,14.652,7.542,21.131,2.369c6.479-5.173,7.542-14.652,2.369-21.131C327.45,280.669,317.971,279.606,311.491,284.779z
				"/>
		</g>
	</g>
	<g>
		<path style="fill:#FFFFFF;" d="M302.932,374.075h11.176c11.036,0,19.982-6.735,19.982-17.771v-2.194
			c0-11.036-8.946-17.771-19.982-17.771h-11.176c-0.268,0-0.529,0.03-0.794,0.04c-2.457-6.868,1.128-11.129,1.128-11.129
			c-13.623,3.107-12.677,14.52-12.677,14.52c-4.662,3.658-7.639,7.955-7.639,14.34v2.194
			C282.95,367.34,291.896,374.075,302.932,374.075z"/>
		<g>
			<path style="fill:#542FD0;" d="M321.151,356.986c1.239,0,2.247-1.008,2.247-2.247s-1.008-2.248-2.247-2.248
				c-1.238,0-2.246,1.008-2.246,2.248S319.913,356.986,321.151,356.986z"/>
			<path style="fill:#542FD0;" d="M308.52,356.986c1.239,0,2.247-1.008,2.247-2.247s-1.008-2.248-2.247-2.248
				c-1.239,0-2.248,1.008-2.248,2.248S307.28,356.986,308.52,356.986z"/>
			<path style="fill:#542FD0;" d="M295.888,356.986c1.239,0,2.247-1.008,2.247-2.247s-1.008-2.248-2.247-2.248
				c-1.239,0-2.248,1.008-2.248,2.248S294.649,356.986,295.888,356.986z"/>
		</g>
	</g>
	<path style="fill:#FFFFFF;" d="M444.861,77.398c1.208-5.607,6.189-9.812,12.158-9.812c0.646,0,1.276,0.064,1.895,0.159
		c0.795-6.105,6.004-10.824,12.326-10.824c1.094,0,2.149,0.155,3.159,0.42c3.277-4.802,8.79-7.957,15.043-7.957
		c9.626,0,17.488,7.479,18.138,16.94c1.433-0.555,2.985-0.871,4.614-0.871c6.78,0,12.314,5.276,12.755,11.945H444.861z"/>
	<path style="fill:#FFFFFF;" d="M154.73,203.16c-1.208-5.607-6.189-9.812-12.157-9.812c-0.646,0-1.276,0.064-1.895,0.159
		c-0.795-6.105-6.004-10.824-12.326-10.824c-1.094,0-2.149,0.155-3.159,0.42c-3.277-4.802-8.79-7.957-15.043-7.957
		c-9.626,0-17.488,7.479-18.138,16.94c-1.433-0.555-2.985-0.871-4.614-0.871c-6.78,0-12.313,5.276-12.755,11.945H154.73z"/>
	<path style="fill:#FFFFFF;" d="M464.069,381.213c-1.779-8.255-9.111-14.445-17.898-14.445c-0.951,0-1.878,0.095-2.789,0.234
		c-1.171-8.989-8.839-15.936-18.146-15.936c-1.61,0-3.164,0.229-4.651,0.619c-4.824-7.07-12.941-11.715-22.146-11.715
		c-14.172,0-25.746,11.01-26.703,24.939c-2.11-0.817-4.395-1.283-6.793-1.283c-9.982,0-18.128,7.768-18.778,17.586H464.069z"/>
	<g>
		<g>
			<g>
				<path style="fill:#FFC19D;" d="M165.423,441.688c-1.608-0.78-3.419-0.83-5.171-0.811c-1.082,0.012-3.98,0.596-4.492-0.668
					c-0.179-0.441-0.131-0.937-0.087-1.412c0.029-0.322,0.056-0.645,0.079-0.968c0.141-1.967-0.012-3.959,0.183-5.908
					c0.27-2.693,0.418-5.397,0.481-8.103c0.058-2.497-0.488-4.988-0.663-7.497c-0.368-5.273-0.269-10.564-0.17-15.844
					c0.004-0.194,0.019-0.414,0.168-0.539c0.127-0.107,0.309-0.107,0.475-0.102c3.724,0.12,7.442,0.458,11.126,1.014
					c0.455,0.069,0.964,0.174,1.214,0.56c0.188,0.289,0.176,0.66,0.157,1.005c-0.255,4.73-0.251,9.367-0.818,14.054
					c-0.615,5.082-1.195,10.169-1.817,15.251C165.683,435.027,165.46,438.356,165.423,441.688z"/>
			</g>
			<g>
				<path style="fill:#D42190;" d="M181.1,445.596c0.01,0.459-0.01,0.976-0.364,1.263c-0.22,0.191-0.526,0.23-0.814,0.258
					c-7.734,0.804-15.582,0.182-23.306-0.498c-0.459-0.048-1.234-0.124-1.799-0.392c-0.258-0.125-0.488-0.287-0.603-0.517
					c-0.124-0.23-0.105-0.517-0.086-0.785c0.057-0.584,0.105-1.158,0.153-1.742c0.23-2.431,0.44-4.862,0.66-7.293
					c0.144-1.531,0.278-3.063,0.421-4.594c0.124-1.397,0.527-1.704,1.991-1.684c1.331,0.01,2.661,0.019,3.972,0.182
					c1.12,0.134,2.278,0.402,3.13,1.149c0.067-0.392,0.134-0.785,0.344-1.12c0.201-0.335,0.584-0.593,0.976-0.536
					c0.383,0.067,0.67,0.421,0.775,0.804c0.105,0.383,0.067,0.785,0.058,1.177c-0.096,2.287,0.641,6.46,2.881,7.695
					c2.89,1.589,6.47,2.488,9.619,3.493c0.412,0.125,0.823,0.259,1.158,0.536c0.383,0.316,0.584,0.756,0.689,1.244
					C181.061,444.677,181.09,445.146,181.1,445.596z"/>
			</g>
			<circle style="fill:#FFFFFF;" cx="159.862" cy="435.65" r="3"/>
			<g>
				<path style="fill:#FFFFFF;" d="M181.1,445.596c0.01,0.459-0.01,0.976-0.364,1.263c-0.22,0.191-0.526,0.23-0.814,0.258
					c-7.734,0.804-15.582,0.182-23.306-0.498c-0.459-0.048-1.234-0.124-1.799-0.392c-0.258-0.125-0.488-0.287-0.603-0.517
					c-0.124-0.23-0.105-0.517-0.086-0.785c0.057-0.584,0.105-1.158,0.153-1.742c5.503,1.101,11.15,1.129,16.74,1.072
					c3.025-0.029,6.059-0.086,9.083-0.01c0.258,0.01,0.546,0,0.852-0.01C181.061,444.677,181.09,445.146,181.1,445.596z"/>
			</g>
		</g>
		<g>
			<g>
				<path style="fill:#FFC19D;" d="M113.081,428.629c-1.157-1.361-2.796-2.137-4.406-2.826c-0.995-0.425-3.883-1.058-3.842-2.421
					c0.014-0.476,0.258-0.911,0.489-1.327c0.157-0.283,0.311-0.568,0.462-0.854c0.922-1.743,1.584-3.629,2.548-5.333
					c1.332-2.356,2.557-4.772,3.705-7.223c1.059-2.262,1.563-4.762,2.413-7.128c1.788-4.974,4.009-9.777,6.226-14.571
					c0.082-0.176,0.184-0.371,0.371-0.426c0.159-0.047,0.326,0.026,0.476,0.098c3.361,1.61,6.627,3.417,9.775,5.41
					c0.389,0.246,0.812,0.548,0.885,1.002c0.055,0.34-0.105,0.675-0.261,0.983c-2.139,4.227-4.003,8.473-6.41,12.534
					c-2.61,4.404-5.19,8.826-7.806,13.227C116.002,422.638,114.458,425.595,113.081,428.629z"/>
			</g>
			<g>
				<path style="fill:#D42190;" d="M125.856,438.521c-0.176,0.424-0.402,0.89-0.842,1.01c-0.279,0.086-0.574-0.002-0.849-0.091
					c-7.402-2.379-14.335-6.11-21.131-9.843c-0.401-0.229-1.08-0.611-1.489-1.084c-0.186-0.218-0.331-0.459-0.344-0.716
					c-0.021-0.26,0.112-0.516,0.237-0.753c0.288-0.511,0.563-1.017,0.842-1.533c1.19-2.133,2.362-4.273,3.542-6.409
					c0.748-1.344,1.488-2.691,2.236-4.035c0.677-1.229,1.168-1.347,2.5-0.74c1.214,0.545,2.428,1.089,3.562,1.766
					c0.971,0.574,1.923,1.285,2.402,2.312c0.219-0.332,0.439-0.664,0.766-0.886c0.319-0.225,0.773-0.308,1.109-0.097
					c0.324,0.216,0.444,0.655,0.386,1.048c-0.058,0.393-0.255,0.745-0.422,1.101c-1.009,2.055-2.015,6.171-0.463,8.204
					c2.006,2.618,4.92,4.884,7.397,7.072c0.327,0.28,0.649,0.568,0.844,0.957c0.223,0.443,0.23,0.927,0.13,1.416
					C126.191,437.665,126.028,438.105,125.856,438.521z"/>
			</g>
			<path style="fill:#FFFFFF;" d="M107.678,419.655c-0.667,1.517,0.021,3.287,1.537,3.954c1.517,0.667,3.287-0.021,3.954-1.537
				c0.668-1.517-0.021-3.287-1.537-3.954C110.116,417.45,108.345,418.138,107.678,419.655z"/>
			<g>
				<path style="fill:#FFFFFF;" d="M125.856,438.521c-0.176,0.424-0.402,0.89-0.842,1.01c-0.279,0.086-0.574-0.002-0.849-0.091
					c-7.402-2.379-14.335-6.11-21.131-9.843c-0.401-0.229-1.08-0.611-1.489-1.084c-0.186-0.218-0.331-0.459-0.344-0.716
					c-0.021-0.26,0.112-0.516,0.237-0.753c0.288-0.511,0.563-1.017,0.842-1.533c4.594,3.224,9.751,5.525,14.89,7.724
					c2.78,1.192,5.58,2.362,8.317,3.65c0.233,0.113,0.499,0.22,0.784,0.334C126.191,437.665,126.028,438.105,125.856,438.521z"/>
			</g>
		</g>
		<g>
			<path style="fill:#D42190;" d="M173.946,296.573c-1.012-1.96-4.578,0.112-6.446,0.323c-6.352,0.721-12.448,1.427-18.727,2.364
				c-0.803,0.12-0.398,14.072-0.357,15.454c0.069,2.293,0.12,3.5-1.279,5.383c-1.089,1.466-2.631,2.608-3.139,4.445
				c-0.454,1.642,0.078,3.376,0.606,4.996c2.389,7.333,4.778,14.665,7.167,21.998c1.094,3.357,1.913,6.003,1.839,9.522
				c-0.077,3.719-0.82,7.413-0.528,11.14c0.431,5.48,0.401,10.997,0.465,16.539c0.134,11.668,0.578,23.332,1.312,34.978
				c4.455,0.874,8.941,1.56,13.423,2.281c0.832-2.013,2.24-11.46,2.706-14.812c0.073-0.522,0.122-0.897,0.143-1.071
				c0.62-5.128,1.437-10.167,1.838-15.297c0.647-8.275,1.135-16.561,1.478-24.854c0.3-7.243-0.574-14.11-0.225-21.321
				c0.818-16.952,0.759-33.942-0.009-50.895C174.192,297.252,174.097,296.867,173.946,296.573z"/>
		</g>
		<g>
			<path style="fill:#D42190;" d="M154.765,298.766c-0.046-0.749-0.166-1.571-0.729-2.067c-0.877-0.771-2.439-0.53-3.52-0.645
				c-1.011-0.108-1.959-0.371-2.947-0.605c-2.859-0.676-5.791-0.875-8.714-1.06c-2.478-0.156-4.956-0.312-7.434-0.469
				c-0.29-0.018-0.595-0.033-0.856,0.125c-0.734,0.444-0.521,1.275-0.7,1.942c-0.26,0.971-0.699,1.889-1.045,2.839
				c-0.78,2.138-1.376,4.34-1.832,6.568c-0.898,4.391-1.246,8.877-1.37,13.35c-0.201,7.266,0.32,14.521,0.438,21.783
				c0.109,6.683,1.646,13.653,0.538,20.292c-0.706,4.232-2.507,8.187-4.129,12.159c-2.557,6.261-4.702,12.682-6.633,19.16
				c-0.549,1.842-1.15,3.721-1.751,5.621c-1.095,3.465-2.183,6.998-2.948,10.501c3.624,2.969,7.697,5.323,11.501,8.045
				c3.478-4.592,10.136-17.623,10.951-19.142c5.025-9.369,11.109-18.32,14.349-28.533c1.701-5.364,1.212-10.868,1.463-16.452
				c0.263-5.849,0.799-11.706,2.052-17.434c0.325-1.487,0.697-2.963,1.123-4.424c0.819-2.808,1.78-5.363,1.4-8.272
				c-0.397-3.039-0.019-6.253-0.029-9.328C153.927,308.054,155.053,303.44,154.765,298.766z"/>
		</g>
		<g>
			<path style="fill:#FFC19D;" d="M183.946,267.683c-0.938,3.228,1.474,5.625,4.319,6.641c1.503,0.537,2.96,0.847,4.426,0.205
				c1.846-0.808,3.582-1.536,5.094-2.921c2.488-2.28,4.288-5.194,6.056-8.069c2.465-4.008,4.954-7.89,6.68-12.272
				c0.881-2.236,1.668-4.509,2.359-6.811c0.192-0.639,2.115-6.54,1.736-6.764c-1.584-0.936-3.099-1.993-4.721-2.872
				c-2.079,3.207-3.754,6.659-6.008,9.77c-2.335,3.223-5.095,6.11-7.927,8.895c-2.114,2.079-4.278,4.106-6.377,6.2
				c-2.106,2.102-4.214,4.017-5.253,6.855C184.191,266.921,184.057,267.302,183.946,267.683z"/>
		</g>
		<g>
			<path style="fill:#FFC19D;" d="M216.917,237.18c0.113-0.08,0.228-0.156,0.345-0.229c0.807-0.501,1.773-0.862,2.441-1.549
				c0.411-0.423,0.737-0.92,1.069-1.407c0.747-1.096,1.541-2.161,2.378-3.191c0.379-0.466,1.965-1.757,0.96-2.359
				c-0.308-0.185-0.698-0.129-1.052-0.065c0.108-0.02,0.393-0.483,0.478-0.58c0.179-0.203,0.374-0.396,0.543-0.608
				c0.319-0.4,0.56-0.856,0.888-1.259c0.282-0.345,0.564-0.703,0.712-1.124c0.148-0.421,0.141-0.921-0.126-1.278
				c-0.267-0.357-0.833-0.492-1.178-0.209c0.314-0.412,0.519-0.908,0.588-1.421c0.025-0.186,0.031-0.381-0.034-0.557
				c-0.117-0.318-0.597-0.508-0.919-0.426c-0.165,0.042-0.305,0.149-0.437,0.257c-0.476,0.387-0.922,0.816-1.276,1.318
				c0.117-0.263,0.09-0.584-0.067-0.824c-0.704-1.075-1.925,0.524-2.336,1.104c-0.693,0.977-1.222,2.074-2.037,2.962
				c-0.491,0.535-1.072,0.977-1.661,1.403c-0.647,0.468-1.307,0.919-1.978,1.351c0.161-0.104,0.298-0.751,0.369-0.938
				c0.137-0.361,0.267-0.724,0.383-1.092c0.296-0.942,0.559-1.964,0.372-2.954c-0.026-0.139-0.064-0.283-0.161-0.385
				c-0.082-0.087-0.198-0.134-0.312-0.172c-0.124-0.042-0.256-0.076-0.385-0.058c-0.466,0.067-0.673,0.57-0.817,0.952
				c-0.21,0.558-0.415,1.118-0.614,1.68c-0.45,1.274-0.747,2.691-1.407,3.868c-1.26,2.247-2.015,4.865-2.969,7.288
				c-0.039,0.1-0.079,0.208-0.052,0.312c0.035,0.134,0.169,0.213,0.291,0.279c1.058,0.568,2.116,1.137,3.174,1.705
				c0.652,0.354,1.407,0.579,1.921,1.09c0.037,0.002,0.065-0.014,0.085-0.046C214.925,238.967,215.826,237.952,216.917,237.18z"/>
		</g>
		<g>
			<g>
				<g>
					<path style="fill:#09136E;" d="M139.087,312.181c0.086,10.868,6.693,19.981,10.079,29.943c0.154,0.454,0.879,0.259,0.723-0.199
						c-3.361-9.888-9.967-18.963-10.053-29.744C139.834,311.698,139.084,311.697,139.087,312.181L139.087,312.181z"/>
				</g>
			</g>
			
				<path style="fill:none;stroke:#09136E;stroke-width:0.7;stroke-linecap:round;stroke-linejoin:round;stroke-miterlimit:10;stroke-dasharray:3,3;" d="
				M169.848,301.505c1.553,39.395-3.658,82.947-7.735,122.161"/>
			
				<path style="fill:none;stroke:#09136E;stroke-width:0.7;stroke-linecap:round;stroke-linejoin:round;stroke-miterlimit:10;stroke-dasharray:3,3;" d="
				M117.146,411.723c5.211-12.366,11.765-24.118,17.37-36.311c5.605-12.192,10.302-25.01,11.47-38.378"/>
		</g>
		<g>
			<path style="fill:#E89C77;" d="M142.897,232.405c-1.402-0.921-3.213-4.031-1.113-5.212c1.912-1.076,4.576-0.436,6.299-1.996
				c1.245-1.114,1.2-3.092,1.365-4.635c0.2-1.862,0.28-3.737,0.24-5.609c-0.001-0.058-0.001-0.122,0.036-0.168
				c0.053-0.065,0.152-0.059,0.235-0.048c2.609,0.36,5.246,0.37,7.874,0.362c1.135-0.004,2.132-0.048,3.201,0.288
				c0.678,0.213,2.016,0.387,2.459,0.977c0.267,0.356,0.264,0.84,0.246,1.285c-0.221,5.511-0.925,11.209,0.922,16.406
				c0.227,0.638,0.493,1.276,0.53,1.951c0.041,0.749-0.399,1.171-0.577,1.836c-0.195,0.731-0.15,1.601-0.228,2.354
				c-0.182,1.75-0.399,3.498-0.775,5.218c-0.037,0.169-0.091,0.36-0.245,0.438c-0.243,0.122-0.504-0.121-0.67-0.336
				c-2.723-3.516-6.068-5.596-9.609-8.13c-2.976-2.13-6.643-2.908-9.784-4.732C143.16,232.572,143.025,232.489,142.897,232.405z"/>
		</g>
		<g>
			<path style="fill:#FFC19D;" d="M174.55,198.389c-0.099,1.005-0.178,2.078,0.223,3.025c0.658,1.553,1.18,3.084,1.759,4.669
				c0.65,1.779-1.703,1.227-2.401,2.128c-0.219,0.284-0.132,0.575-0.184,0.908c-0.17,1.093-0.702,2.232-1.077,3.271
				c-0.722,2-1.559,3.978-2.703,5.777c-1.126,1.77-2.895,1.235-4.612,0.465c-4.759-2.133-9.802-3.77-14.158-6.61
				c-1.305-0.851-1.803-2.375-2.644-3.674c-1.742-2.692-1.15-6.131-2.048-9.167c-1.674-5.66-1.278-11.214,3.414-15.261
				c2.542-2.193,5.749-3.498,9.019-4.255c2.52-0.583,5.197-0.854,7.667-0.088c2.206,0.684,4.128,2.185,5.434,4.09
				c1.654,2.412,2.094,5.335,2.4,8.179c0.149,1.386,0.334,2.717,0.199,4.11C174.76,196.766,174.63,197.577,174.55,198.389z"/>
		</g>
		<g>
			<path style="fill:#FFFFFF;" d="M174.678,301.234c0.127-6.196,0.505-12.387,1.132-18.552c0.365-3.59,0.816-7.177,1.579-10.704
				c1.176-5.438,3.12-10.788,3.364-16.39c0.25-5.759-3.38-10.383-5.73-15.436c-1.92-4.13-5.676-6.888-9.196-9.694
				c-4.133-3.296-10.258-4.7-15.071-6.994c-1.956-0.933-3.968-1.958-6.135-2.29c-1.825-0.28-3.169,0.593-4.606,1.681
				c-2.69,2.037-4.435,5.024-4.796,8.389c-0.31,2.894,0.854,5.758,0.272,8.783c-0.362,1.88-0.931,3.472-1.055,5.432
				c-0.634,10.014,0.099,20.384-2.079,30.198c-2.408,10.85-4.402,21.767-5.777,32.798c13.821,1.221,27.642,2.442,41.463,3.664
				c2.258,0.2,4.515,0.611,6.703,1.184C174.618,309.281,174.595,305.256,174.678,301.234z"/>
		</g>
		<g>
			<path style="fill:#FFC19D;" d="M191.643,259.588c1.254,1.44,2.49,2.894,3.638,4.41c0.919,1.212,1.535,2.426,1.031,3.905
				c-0.483,1.417-0.87,2.944-1.575,4.301c-0.807,1.554-1.71,2.701-3.62,2.669c-0.914-0.015-1.804-0.289-2.665-0.598
				c-3.112-1.116-5.889-2.625-8.308-4.879c-3.571-3.328-6.811-7.011-9.655-10.978c-0.225-0.313-0.454-0.646-0.497-1.029
				c-0.079-0.698,0.837-1.165,1.316-1.537c3.712-2.882,7.754-5.118,11.633-7.699C185.195,252.396,188.475,255.948,191.643,259.588z"
				/>
		</g>
		<g>
			<path style="fill:#FFFFFF;" d="M184.494,248.468c-0.702-1.136-1.451-2.224-2.304-3.279c-0.601-0.743-1.226-1.467-1.853-2.188
				c-0.304-0.349-1.732-1.556-1.732-1.988c-1.947-2.269-3.992-4.462-6.205-6.474c-3.083-2.807-8.693-8.413-12.694-3.634
				c-2.375,2.837-2.845,7.408-1.947,10.893c0.544,2.109,1.341,4.143,2.313,6.09c0.811,1.623,1.166,3.089,2.364,4.5
				c3.016,3.555,6.261,6.915,9.709,10.054c0.369,0.336,0.843,0.695,1.319,0.542c0.205-0.066,0.369-0.218,0.524-0.367
				c4.014-3.824,7.756-7.934,11.187-12.289c0.076-0.096,0.155-0.202,0.159-0.325c0.004-0.108-0.052-0.208-0.106-0.301
				C184.988,249.283,184.744,248.872,184.494,248.468z"/>
		</g>
		<g>
			<path style="fill:#11112B;" d="M165.212,221.433c-0.66-4.469-1.895-18.359-0.298-18.38c0.4-0.005,0.669,0.394,1.136,0.317
				c0.629-0.104,0.959-0.717,1.239-1.222c1.467-2.646,3.218-4.317,6.101-5.276c2.285-0.76,3.634-2.724,4.003-5.133
				c0.611-3.99-2.516-8.46-5.399-10.932c-2.599-2.228-5.961-3.855-9.333-4.472c-3.042-0.556-6.187-0.139-9.189,0.464
				c-9.322,1.871-15.052,11.702-16.263,20.424c-0.275,1.984,0.108,4.235-0.33,6.153c-0.368,1.615-1.576,3.277-2.722,4.421
				c-2.803,2.794-6.608,4.403-9.446,7.162c-3.756,3.651-5.475,9.275-4.402,14.401c0.664,3.173,2.321,6.234,1.978,9.457
				c-0.368,3.453-1.994,4.215-4.161,6.46c-2.174,2.253-3.232,5.509-3.412,8.584c-0.094,1.595,0.015,3.259,0.756,4.674
				c1.604,3.063,5.507,3.997,8.109,6.275c3.739,3.274,4.409,8.954,7.783,12.604c2.671,2.889,6.752,4.133,10.685,4.207
				c3.891,0.074,7.846-0.915,11.065-3.103c3.219-2.187,5.644-5.617,6.311-9.451c0.724-4.158-0.589-8.481,0.202-12.626
				c1.137-5.953,6.722-8.042,8.207-13.409c1.917-6.926-0.795-13.781-2.421-20.464C165.357,222.34,165.288,221.949,165.212,221.433z"
				/>
		</g>
		<g>
			<path style="fill:#FFC19D;" d="M159.59,198.954c-0.033,0.062-0.063,0.126-0.092,0.191c-0.621,1.402-0.485,3.199,0.105,4.706
				c0.59,1.507,1.586,2.762,2.658,3.85c1.236,1.254,3.28,1.849,3.316-0.506c0.024-1.564-0.373-3.226-0.763-4.738
				c-0.557-2.157-1.662-4.346-3.785-4.351c-0.38-0.001-0.77,0.08-1.066,0.342C159.811,198.584,159.691,198.761,159.59,198.954z"/>
		</g>
		<g>
			<g>
				<path style="fill:#09136E;" d="M161.732,252.003c3.328,4.446,7.179,8.159,11.382,11.767c0.149,0.128,0.384,0.158,0.53,0
					c3.849-4.155,7.698-8.309,11.546-12.464c0.328-0.354-0.202-0.885-0.53-0.53c-3.849,4.154-7.698,8.309-11.546,12.464
					c0.177,0,0.354,0,0.53,0c-4.152-3.564-7.975-7.222-11.265-11.615C162.093,251.242,161.442,251.616,161.732,252.003
					L161.732,252.003z"/>
			</g>
		</g>
		<g>
			<g>
				<path style="fill:#D67F5C;" d="M190.448,258.433c-0.848,1.083-1.503,2.293-1.935,3.599c-0.122,0.367,0.458,0.525,0.579,0.16
					c0.398-1.202,1-2.337,1.781-3.335c0.1-0.127,0.124-0.3,0-0.424C190.768,258.329,190.548,258.305,190.448,258.433
					L190.448,258.433z"/>
			</g>
		</g>
		<g style="opacity:0.15;">
			<g>
				<g>
					<path style="fill:#FFFFFF;" d="M159.543,214.198c-0.296,4.232,2.494,7.785,3.53,11.729c1.159,4.415,0.809,9.216-1.012,13.403
						c-1.725,3.967-4.695,7.294-5.821,11.534c-1.036,3.898-0.659,8.008,0.937,11.697c0.191,0.442,0.837,0.06,0.648-0.379
						c-1.767-4.085-1.904-8.779-0.268-12.932c1.583-4.017,4.535-7.317,5.886-11.452c1.202-3.678,1.37-7.686,0.504-11.456
						c-0.942-4.102-3.956-7.812-3.653-12.145C160.327,213.716,159.577,213.719,159.543,214.198L159.543,214.198z"/>
				</g>
			</g>
			<g>
				<g>
					<path style="fill:#FFFFFF;" d="M141.136,192.032c-0.54,4.552,0.595,9.381-0.893,13.802c-1.355,4.024-5.07,6.159-8.363,8.446
						c-3.024,2.1-5.765,4.598-6.617,8.334c-0.445,1.948-0.373,3.985,0.231,5.891c0.671,2.119,1.878,4.02,2.576,6.129
						c0.955,2.885,0.162,5.384-1.338,7.907c-1.578,2.654-3.27,5.246-4.908,7.864c-0.257,0.41,0.392,0.787,0.648,0.378
						c1.487-2.378,2.987-4.749,4.462-7.134c1.106-1.789,2.18-3.682,2.345-5.823c0.354-4.577-3.602-8.17-3.559-12.748
						c0.046-4.888,3.358-7.984,7.11-10.543c3.039-2.073,6.318-4.137,7.815-7.663c1.982-4.666,0.66-9.951,1.24-14.839
						C141.943,191.554,141.192,191.558,141.136,192.032L141.136,192.032z"/>
				</g>
			</g>
			<g>
				<g>
					<path style="fill:#FFFFFF;" d="M133.765,264.297c-3.135-2.907-3.369-7.478-2.355-11.386c1.142-4.403,3.587-8.34,4.704-12.751
						c0.499-1.971,0.722-4.014,0.442-6.036c-0.293-2.114-1.069-4.122-1.413-6.225c-0.778-4.757,1.919-8.865,4.885-12.312
						c2.807-3.263,5.921-6.369,7.313-10.546c0.153-0.459-0.571-0.656-0.723-0.199c-2.617,7.85-12.494,12.426-12.382,21.367
						c0.028,2.234,0.803,4.356,1.295,6.51c0.592,2.593,0.441,5.13-0.259,7.688c-1.259,4.6-3.9,8.722-4.845,13.421
						c-0.776,3.861-0.2,8.213,2.807,11.001C133.588,265.155,134.12,264.626,133.765,264.297L133.765,264.297z"/>
				</g>
			</g>
			<g>
				<g>
					<path style="fill:#FFFFFF;" d="M150.34,192.742c-2.212,5.489-1.172,11.444,0.223,16.997c0.771,3.069,1.648,6.124,2.104,9.261
						c0.443,3.042,0.477,6.148,0.124,9.201c-0.708,6.131-3.146,11.54-6.298,16.775c-2.946,4.893-6.144,9.924-6.691,15.754
						c-0.521,5.557,2.028,10.938,6.599,14.117c0.397,0.276,0.772-0.374,0.379-0.648c-4.508-3.135-6.825-8.478-6.181-13.912
						c0.708-5.969,4.255-11.047,7.233-16.089c2.775-4.698,4.833-9.631,5.591-15.067c0.777-5.572,0.061-10.953-1.31-16.368
						c-1.634-6.454-3.663-13.335-1.049-19.822C151.244,192.493,150.519,192.299,150.34,192.742L150.34,192.742z"/>
				</g>
			</g>
			<g>
				<g>
					<path style="fill:#FFFFFF;" d="M146.447,191.977c1.544-5.27,6.318-9.382,11.777-10.075c0.472-0.06,0.478-0.811,0-0.75
						c-5.799,0.737-10.853,5.006-12.5,10.626C145.588,192.242,146.311,192.441,146.447,191.977L146.447,191.977z"/>
				</g>
			</g>
		</g>
		<g>
			<g>
				<path style="fill:#11112B;" d="M137.29,195.253c-1.222,1.879-1.041,4.106-1.616,6.194c-0.638,2.318-2.355,4.082-4.154,5.582
					c-3.705,3.089-7.847,5.712-10.437,9.91c-1.142,1.851-1.952,3.932-2.159,6.107c-0.232,2.44,0.469,4.785,1.087,7.116
					c0.662,2.495,1.125,5.075,0.367,7.606c-0.58,1.936-1.795,3.588-2.854,5.281c-2.518,4.025-3.044,8.784-0.325,12.893
					c0.265,0.401,0.915,0.026,0.648-0.378c-1.273-1.924-1.885-4.165-1.745-6.472c0.145-2.383,1.209-4.318,2.465-6.286
					c0.951-1.491,1.941-2.978,2.484-4.678c0.602-1.886,0.579-3.895,0.23-5.828c-0.445-2.466-1.427-4.828-1.621-7.34
					c-0.198-2.567,0.566-5.071,1.851-7.276c2.491-4.273,6.664-6.929,10.389-9.998c1.686-1.389,3.304-2.992,4.155-5.044
					c0.938-2.263,0.518-4.908,1.883-7.008C138.201,195.226,137.552,194.85,137.29,195.253L137.29,195.253z"/>
			</g>
		</g>
	</g>
</g>
<g id="TEXTS">
	<text transform="matrix(1 0 0 1 253.4036 143.7877)" style="fill:#FFFFFF; font-family:'Montserrat-Bold'; font-size:20.4341px;">&lt;/&gt;</text>
</g>
</svg>
