<?xml version="1.0" encoding="utf-8"?>
<!-- Generator: Adobe Illustrator 27.5.0, SVG Export Plug-In . SVG Version: 6.00 Build 0)  -->
<svg version="1.1" xmlns="http://www.w3.org/2000/svg" xmlns:xlink="http://www.w3.org/1999/xlink" x="0px" y="0px"
	 viewBox="0 0 500 500" style="enable-background:new 0 0 500 500;" xml:space="preserve">
<g id="BACKGROUND">
	<rect style="fill:#FFFFFF;" width="500" height="500"/>
</g>
<g id="OBJECTS">
	<g>
		<defs>
			<rect id="SVGID_1_" width="500" height="500"/>
		</defs>
		<clipPath id="SVGID_00000013173644281500963120000008474627300990669197_">
			<use xlink:href="#SVGID_1_"  style="overflow:visible;"/>
		</clipPath>
		<g style="clip-path:url(#SVGID_00000013173644281500963120000008474627300990669197_);">
			<polygon style="fill:#13AC69;" points="331.19,467.245 276.921,458.97 276.921,450.742 249.944,454.856 222.966,450.742 
				222.966,458.97 168.698,467.245 163.86,548.581 240.474,548.581 250.973,546.617 259.597,548.581 336.028,548.581 			"/>
			<path style="fill:#D73532;" d="M164.721,469.21c0,0-0.853,13.36-0.861,14.931c-0.009,1.572,15.315,3.929,53.822,3.929
				c38.507,0,60.33,1.572,79.87,0c19.54-1.572,36.586-5.501,38.476-7.073c1.89-1.572-4.398-17.682-4.398-17.682L164.721,469.21z"/>
			<path style="fill:#FB4D46;" d="M333.066,446.409c0.947-16.136-6.405-29.463-6.405-46.296c0-13.405-4.707-100.896-6.005-102.882
				c-1.299-1.986-25.356-35.618-25.356-35.618l-9.935,13.085l-35.836-14.962l0.028-2.452l-2.783,1.302l-5.327-2.224l0.294,4.579
				l-17.649,12.614l-19.704-13.001c0,0-30.615,38.686-31.808,40.722c-1.193,2.036-8.348,104.262-4.174,119.371
				c3.6,13.033-5.284,19.37-4.396,32.154c0.755,10.86-12.562,17.318,3.337,20.316c15.899,2.997,151.335,0.522,167.276-2.301
				C348.727,468.318,332.428,457.274,333.066,446.409z"/>
			<path style="fill:#FFBD96;" d="M307.162,323.681c0,0,11.045,34.724,7.043,38.414c-4.003,3.69-55.149,19.868-71.279,17.592
				c-16.13-2.276-13.052-3.165-20.628-11.38c-7.575-8.215-36.095,5.026-36.095,5.026s2.653,9.435,4.119,13.347
				c1.467,3.912-1.328,4.897,0.729,7.127c2.056,2.23,0.718,4.753,1.991,6.133s0.603,4.922,11.13,5.348
				c10.527,0.427,19.04-4.501,28.887-2.276c9.846,2.224,96.967-4.94,104.677-6.1c10.442-1.571,16.064-21.114,16.428-30.089
				c0.364-8.975-4.343-57.964-4.343-57.964L307.162,323.681z"/>
			<path style="fill:#F4A373;" d="M194.823,314.351l-1.588,21.45l-24.271,50.825l-11.724,6.543c0,0-12.651-29.656-4.306-69.037
				C159.207,294.517,194.823,314.351,194.823,314.351z"/>
			<path style="fill:#FB4D46;" d="M205.811,255.132c0,0-39.846,11.942-53.659,22.575c-9.116,7.017-16.926,49.518-17.349,59.399
				c-0.173,4.028,58.775-2.466,70.243-18.333C216.514,302.906,205.811,255.132,205.811,255.132z"/>
			<path style="fill:#FB4D46;" d="M289.645,253.176c0,0,41.09,12.186,53.898,22.819c8.453,7.018,12.563,49.274,12.955,59.154
				c0.16,4.028-39.243,20.266-49.876,4.4C295.989,323.684,289.645,253.176,289.645,253.176z"/>
			<g>
				<path style="fill:#000D3E;" d="M297.552,238.872c0,0-7.429,2.665-15.458,2.147c-8.03-0.518-13.081-2.667-19.815-1.981
					c-6.735,0.686-15.439,4.779-25.009,4.222c-9.57-0.557-9.182-4.519-15.657-4.222c-6.475,0.298-11.008,1.82-18.132,0.605
					c-7.123-1.215-4.03-31.391,6.079-33.074c10.11-1.684,66.965,0,66.965,0L297.552,238.872z"/>
			</g>
			<g>
				<path style="fill:#000D3E;" d="M227.583,124.635c0-0.361-1.795-22.751,14.617-26.359c16.412-3.608,26.143,7.234,37.121,13.729
					c10.978,6.495,17.752,14.554,18.102,29.469c0.35,14.915,12.346,10.183,16.951,26.824c2.772,10.017-3.753,21.53-2.819,30.671
					c0.934,9.141,13.081,28.507,5.723,35.603c-7.358,7.096-49.402,3.608-49.986,3.608
					C266.708,238.181,227.583,124.635,227.583,124.635z"/>
			</g>
			<g>
				<path style="fill:#000D3E;" d="M281.106,184.049c0,0,9.507,13.759,6.478,23.903c-3.029,10.144-5.553,17.915-2.349,23.354
					c3.205,5.44,12.96,7.455,12.317,7.566c-12.279,2.132-31.324-0.735-31.324-0.735l-2.137-8.645L281.106,184.049z"/>
			</g>
			<g>
				<path style="fill:#000D3E;" d="M233.354,115.412c0,0,9.431,10.555,4.916,16.985c-4.515,6.43-7.388,4.789-7.662,9.577
					c-0.273,4.788,2.6,14.709-4.241,17.205c-6.841,2.496-10.945-5.302-14.913,9.337c-3.968,14.64,6.567,14.503,3.557,30.1
					c-3.01,15.597-0.589,25.972,5.431,33.77c6.02,7.799-13.382,10.321-27.077,8.893c-11.739-1.224-20.606-8.075-26.667-23.961
					c-5.497-14.41,1.106-33.852,11.915-40.146c10.809-6.293,10.21-13.385,12.865-31.093c2.763-18.434,7.685-29.089,19.254-32.715
					C224.532,109.038,233.354,115.412,233.354,115.412z"/>
			</g>
			<g>
				<path style="fill:#000D3E;" d="M195.191,195.525c0,0,4.319,2.107,3.973,8.065c-0.346,5.958-3.995,9.91-1.977,16.093
					c2.019,6.183-6.14,16.383,6.293,19.96c0,0,11.283,2.412,17.743-2.121c6.46-4.533-0.78-41.811-0.78-41.811L195.191,195.525z"/>
			</g>
			<g>
				<g>
					<g>
						<g>
							<g>
								<path style="fill:#FFC19C;" d="M201.624,174.523c0,0-12.882,1.929-12.8,13.155c0.084,11.483,18.401,9.475,18.401,9.475
									L201.624,174.523z"/>
							</g>
						</g>
						<g>
							<g>
								<path style="opacity:0.6;fill:#FFC19C;" d="M203.543,178.295c0,0-10.589,0.959-11.234,11.507c0,0,7.197-7.337,13.709-4.364
									L203.543,178.295z"/>
							</g>
						</g>
					</g>
					<g>
						<path style="fill:#000D3E;" d="M202.9,193.138c0.066,1.251-0.895,2.318-2.146,2.384c-1.25,0.066-2.318-0.895-2.384-2.146
							c-0.066-1.251,0.895-2.319,2.146-2.385C201.767,190.926,202.834,191.887,202.9,193.138z"/>
					</g>
					<g>
						<g>
							<g>
								<path style="fill:#FFC19C;" d="M290.644,174.233c0,0,12.641,3.142,11.494,14.309c-1.173,11.423-19.217,7.687-19.217,7.687
									L290.644,174.233z"/>
							</g>
						</g>
						<g>
							<g>
								<path style="opacity:0.6;fill:#FFC19C;" d="M288.377,177.806c0,0,10.45,1.959,10.091,12.52c0,0-6.468-7.986-13.233-5.645
									L288.377,177.806z"/>
							</g>
						</g>
					</g>
					<g>
						<path style="fill:#000D3E;" d="M287.608,192.643c-0.184,1.239,0.671,2.393,1.91,2.577c1.239,0.184,2.393-0.671,2.577-1.91
							c0.184-1.239-0.671-2.393-1.91-2.577C288.947,190.548,287.793,191.404,287.608,192.643z"/>
					</g>
				</g>
				<g>
					<path style="fill:#FFCFB0;" d="M289.645,253.176c0,0-19.071-6.021-22.251-7.56c-7.062-3.418-3.146-36.539-3.146-36.539
						l-16.268-0.286l-16.253,0.767c0,0,3.249,35.079-1.021,37.116c-7.458,3.559-24.895,8.458-24.895,8.458
						c-2.908,3.798,6.542,50.535,41.524,53.728C289.359,312.695,294.69,262.83,289.645,253.176z"/>
				</g>
				<g style="opacity:0.5;">
					<path style="fill:#FFC19C;" d="M266.565,245.02c-6.193-5.146-2.237-35.112-2.237-35.112l-16.269-0.336l-16.252,0.817
						c0,0,1.634,15.65,0.691,31.278C240.135,245.079,252.19,245.151,266.565,245.02z"/>
				</g>
				<g>
					<path style="fill:#FFCFB0;" d="M290.462,159.61c-2.134-26.867-15.482-34.953-23.862-39.294
						c-8.777-4.546-15.838-5.283-22.049-4.759c-6.226-0.297-13.256,0.696-21.862,5.559c-8.216,4.642-21.261,13.209-22.415,40.136
						c-0.717,16.717,1.648,31.808,6.285,44.194c8.018,21.417,26.839,34.535,40.256,34.427c13.702-0.11,31.264-16.458,39.079-36.182
						C290.735,191.471,291.776,176.152,290.462,159.61z"/>
				</g>
				<g>
					<g>
						<g>
							<path style="fill:#000D3E;" d="M261.711,169.973c7.753-1.309,17.376,3.925,18.307,5.907c0.063,0.134,0.105,0.271,0.131,0.406
								l0.288,0.355l-0.439,0.801c-0.462,0.848-1.341,1.126-5.148,0.457c-0.478-0.084-1.003-0.182-1.579-0.297
								c-14.742-2.935-14.722-4.296-14.706-5.496C258.588,170.5,260.698,170.144,261.711,169.973z"/>
						</g>
						<g>
							<path style="fill:#000D3E;" d="M209.771,180.094c0.011-0.187,0.056-0.387,0.14-0.6c0.93-2.326,9.477-9.133,17.418-8.438
								c0.942,0.08,3.142,0.272,3.347,1.93c0.144,1.161,0.338,2.748-13.889,7.646c-3.217,1.107-4.813,1.429-5.719,1.269
								c-0.459-0.08-0.741-0.285-0.964-0.573l-0.545-0.912L209.771,180.094z"/>
						</g>
					</g>
					<g>
						<path style="fill:#000D3E;" d="M230.804,190.971c0.042,2.906-1.673,5.288-3.833,5.32c-2.159,0.031-3.943-2.299-3.985-5.206
							c-0.042-2.907,1.673-5.288,3.832-5.319C228.977,185.734,230.761,188.065,230.804,190.971z"/>
					</g>
					<g>
						<path style="fill:#000D3E;" d="M270.586,190.391c0.043,2.906-1.673,5.288-3.832,5.319c-2.159,0.031-3.943-2.299-3.986-5.206
							c-0.042-2.906,1.674-5.288,3.832-5.319C268.759,185.154,270.544,187.485,270.586,190.391z"/>
					</g>
				</g>
				<g>
					<g>
						<path style="fill:#FC9B7E;" d="M228.418,205.553c1.25,5.968-3.997,11.094-9.934,9.706c-2.992-0.7-5.385-3.148-6.015-6.156
							c-1.251-5.969,3.997-11.096,9.935-9.707C225.396,200.096,227.788,202.545,228.418,205.553z"/>
					</g>
					<g>
						<path style="fill:#FC9B7E;" d="M281.105,208.046c-0.052,4.507-3.748,8.118-8.255,8.066c-4.507-0.052-8.118-3.747-8.066-8.254
							c0.052-4.507,3.748-8.118,8.255-8.066C277.546,199.843,281.157,203.539,281.105,208.046z"/>
					</g>
				</g>
				<g>
					<path style="fill:#FC9B7E;" d="M251.823,206.428c-0.314,0-0.61-0.191-0.729-0.502c-0.152-0.402,0.05-0.852,0.452-1.005
						c4.482-1.705,5.758-5.385,5.88-6.203c-0.123-0.133-0.382-0.359-0.615-0.564c-1.047-0.918-2.799-2.455-4.566-5.343
						c-2.688-4.395-2.162-13.056-2.137-13.423c0.029-0.43,0.391-0.744,0.827-0.727c0.429,0.028,0.755,0.399,0.727,0.828
						c-0.006,0.085-0.519,8.536,1.912,12.51c1.641,2.685,3.283,4.124,4.263,4.985c0.683,0.598,1.059,0.927,1.139,1.415
						c0.146,0.892-1.179,5.811-6.878,7.979C252.008,206.412,251.915,206.428,251.823,206.428z"/>
				</g>
			</g>
			<g>
				<path style="fill:#000D3E;" d="M233.354,115.412c0,0-1.9,7.104-11.483,16.17c-9.584,9.066-2.59,22.794-8.03,30.824
					c-5.44,8.03-14.829,18.197-21.532,21.661c-6.702,3.464,4.146-11.488,5.715-28.101
					C199.595,139.352,217.381,115.043,233.354,115.412z"/>
				<path style="fill:#000D3E;" d="M190.787,186.908c-0.663,0-1.357-0.189-1.974-0.742c-1.912-1.713-0.924-4.277,1.239-9.895
					c2.073-5.385,4.912-12.759,5.646-20.525c0.81-8.574,5.708-19.268,12.781-27.906c7.835-9.568,16.889-14.96,24.928-14.764
					l2.971,0.069l-0.768,2.871c-0.084,0.316-2.184,7.852-12.135,17.264c-4.751,4.495-4.81,10.32-4.872,16.487
					c-0.049,4.878-0.1,9.922-2.829,13.95c-5.484,8.095-15.195,18.706-22.393,22.427
					C192.931,186.376,191.901,186.908,190.787,186.908z M229.606,118.152c-13.283,3.102-27.859,23.263-29.255,38.033
					c-0.794,8.405-3.889,16.445-5.938,21.764c-0.353,0.919-0.726,1.885-1.048,2.766c6.082-4.089,13.875-12.731,18.541-19.621
					c1.938-2.861,1.98-6.997,2.024-11.376c0.066-6.551,0.141-13.977,6.334-19.835C225.32,125.102,228.124,120.899,229.606,118.152z"
					/>
			</g>
			<path style="opacity:0.5;fill:#D73532;" d="M187.759,410.689c11.972-11.272,46.173-55.566,47.685-64.478
				c1.512-8.912,19.994-27.216,14.518-36.07c-5.476-8.854-40.369-25.965-40.369-25.965s-16.02,3.414-33.225,12.053
				c-2.118,2.744-3.55,4.639-3.789,5.047c-1.126,1.922-7.564,93.114-4.77,116.033C174.88,417.319,182.425,415.711,187.759,410.689z"
				/>
			<g>
				<path style="fill:#000D3E;" d="M230.805,117.452c0,0,1.654,8.172,18.507,13.352c16.852,5.18,21.733,12.42,26.209,29.529
					c4.476,17.109,12.771,31.495,22.947,29.994c10.176-1.501,13.284-6.278,13.284-6.278s-15.173-37.703-19.631-47.028
					C287.663,127.696,248.804,93.48,230.805,117.452z"/>
				<path style="fill:#000D3E;" d="M297.017,192.771c-9.699,0-18.483-11.689-23.757-31.846
					c-4.264-16.303-8.627-22.966-24.635-27.887c-17.67-5.432-19.913-14.147-20.111-15.122l-0.208-1.028l0.63-0.839
					c5.23-6.965,12.414-10.042,21.381-9.154c18.939,1.883,40.329,21.623,43.912,29.118c4.439,9.285,17.769,43.483,18.39,45.024
					l-2.849-0.322l0.495,4.471c-0.377,0.58-0.552,5.845-11.456,7.453C298.208,192.727,297.61,192.771,297.017,192.771z
					 M233.471,117.854c1.058,2.047,4.76,7.1,16.526,10.718c18.264,5.614,23.333,14.152,27.784,31.171
					c4.786,18.292,12.778,29.401,20.346,28.273c6.314-0.931,9.565-3.213,10.911-4.448c-2.755-6.824-15.126-37.383-19.027-45.539
					c-2.814-5.887-22.946-24.772-40.157-26.483C243.075,110.874,237.579,112.994,233.471,117.854z"/>
			</g>
			<path style="opacity:0.5;fill:#D73532;" d="M241.632,403.435c-0.591,5.796-0.94,11.63-0.354,14.308
				c1.819,8.311,13.575,3.911,28.229,4.889c11.026,0.736,40.872-3.193,58.935-7.073c-0.76-3.709-1.384-7.504-1.647-11.477
				l-81.039-0.697L241.632,403.435z"/>
			<g>
				<path style="fill:#000D3E;" d="M242.05,219.667c-0.277,0-0.546-0.149-0.688-0.412c-0.202-0.379-0.059-0.851,0.321-1.053
					c0.278-0.15,6.889-3.623,11.313-1.205c0.377,0.206,0.516,0.679,0.309,1.057c-0.205,0.377-0.68,0.517-1.057,0.31
					c-3.689-2.02-9.77,1.18-9.831,1.212C242.299,219.637,242.174,219.667,242.05,219.667z"/>
			</g>
			<path style="fill:none;stroke:#000D3E;stroke-width:2;stroke-linecap:round;stroke-linejoin:round;stroke-miterlimit:10;" d="
				M195.699,155.745c0,0-8.053,18.298-21.52,24.97c-13.466,6.672-20.433,37.838-7.233,55.437"/>
			<path style="fill:#D73532;" d="M247.023,312.143c1.675,0.159,3.287,0.235,4.843,0.235c17.104-0.001,27.116-9.145,32.614-17.207
				c8.706-12.766,11.247-30.682,9.497-40.655c-2.695-0.853-4.332-1.339-4.332-1.339s-1.283-0.405-3.223-1.027
				c0.058,0.217,0.138,0.432,0.244,0.641c2.433,4.811,2.067,24.404-7.651,38.652c-7.262,10.65-17.807,15.398-31.367,14.114
				c-11.078-1.051-20.441-7.09-27.83-17.951c-9.053-13.309-11.851-29.604-11.149-32.713c0.116-0.207,0.156-0.434,0.224-0.654
				c-1.882,0.555-3.081,0.892-3.081,0.892s-1.414,0.424-3.8,1.182c-0.018,6.17,2.62,15.918,6.149,23.827
				C213.086,291.184,224.685,310.024,247.023,312.143z"/>
			<path style="fill:#FB4D46;" d="M249.976,374.569c0,0-6.114,32.447-4.295,40.758c1.819,8.311,13.575,3.911,28.23,4.889
				c14.655,0.978,62.565-6.285,71.854-10.72c9.289-4.435,19.555-10.79,21.511-45.501c1.956-34.71-22.265-83.598-23.731-87.998
				c-1.467-4.4-34.934,35.688-34.934,35.688S253.706,350.407,249.976,374.569z"/>
			<path style="fill:#D73532;" d="M313.449,349.07c0,0,12.344,1.63,17.355,4.441c5.011,2.811,10.755,5.011,12.466,4.155
				c1.711-0.855-8.033-8.027-15.2-8.597c-7.166-0.57-12.544-0.967-12.544-0.967s19.983-2.658,25.758,1.375
				c5.775,4.033,8.341-0.367,8.525-1.375c0.183-1.008-13.136-6.691-21.739-4.4C319.468,345.995,314.304,344.079,313.449,349.07z"/>
			<path style="fill:#FFBD96;" d="M227.359,275.331c0,0-16.813,26.895-38.404,52.124c-17.506,20.456-32.931,29.075-36.403,46.43
				c-1.809,9.045,2.326,30.55,16.363,29.2c14.037-1.35,27.081-15.258,39.049-33.195c11.967-17.937,32.812-78.458,40.644-85.68
				c7.832-7.222,18.573-18.576,16.939-23.919c-1.634-5.344-0.852-9.424-4.409-11.282c-3.557-1.858-0.574-6.123-3.831-6.941
				c-3.257-0.817,1.3-10.091-1.119-11.286c-2.419-1.195-6.769,0.445-16.203,9.145c-9.434,8.699-7.575,2.572-7.5,0.724
				c0.075-1.848-1.609-16.104-9.629-16.086c0,0-4.538,0.365-2.339,3.606c2.199,3.242,3.229,6.574,3.124,9.174
				c-0.105,2.6-2.983,14.41-0.016,20.698C226.59,264.333,229.475,271.049,227.359,275.331z"/>
			<path style="fill:#FB4D46;" d="M213.025,280.418c0,0,33.753,19.262,38.664,28.442c4.911,9.179-14.681,26.29-16.748,35.09
				c-2.068,8.8-38.976,50.866-51.63,61.366c-12.654,10.5-35.361,3.189-39.034,0c-3.674-3.189-16.808-21.98-9.473-68.21
				C142.138,290.875,213.025,280.418,213.025,280.418z"/>
			<path style="fill:#D73532;" d="M172.368,336.346c0,0-9.166-5.412-9.9-8.346c-0.733-2.933,8.067,2.933,8.067,2.933
				s-5.133-16.133-2.2-18.333c2.933-2.2,4.767,19.066,6.233,18.7c1.467-0.367,8.433-6.05,7.883-3.85
				C181.901,329.65,172.368,336.346,172.368,336.346z"/>
			<g>
				<g>
					<path style="fill:#000D3E;" d="M272.444,76.288c-1.48-1.025-3.51-1.382-6.08-1.066c-1.49,0.183-2.755,0.568-3.783,1.154
						c-1.033,0.586-1.84,1.306-2.431,2.154c-0.586,0.845-0.987,1.781-1.192,2.793c-0.206,1.018-0.247,2.033-0.118,3.056
						c0.149,1.218,0.458,2.235,0.94,3.05c0.478,0.82,1.085,1.462,1.82,1.93c0.735,0.473,1.583,0.786,2.549,0.938
						c0.961,0.159,2.02,0.162,3.166,0.021c1.424-0.174,2.616-0.506,3.562-0.994c0.946-0.493,1.717-1.061,2.297-1.706
						c0.581-0.642,1.008-1.324,1.285-2.033c0.272-0.707,0.463-1.37,0.56-1.984c0.098-0.614,0.134-1.154,0.108-1.609
						c-0.026-0.457-0.046-0.743-0.056-0.856C274.798,78.924,273.924,77.311,272.444,76.288z"/>
					<path style="fill:#000D3E;" d="M288.315,28.544c-0.334-2.729-1.182-5.019-2.549-6.864c-1.362-1.85-2.991-3.31-4.883-4.387
						c-1.886-1.077-3.916-1.786-6.08-2.135c-2.164-0.352-4.199-0.406-6.101-0.175c-1.552,0.19-3.094,0.563-4.63,1.113
						c-1.542,0.55-3.007,1.262-4.394,2.141c-1.388,0.879-2.657,1.914-3.798,3.109c-1.146,1.195-2.102,2.516-2.868,3.968
						c-0.38,0.769-0.529,1.478-0.447,2.13c0.108,0.897,0.349,1.704,0.719,2.418c0.375,0.717,0.807,1.329,1.31,1.832
						c0.504,0.506,1.064,0.884,1.676,1.133c0.611,0.247,1.218,0.339,1.804,0.267c0.715-0.087,1.388-0.329,2.015-0.712
						c0.632-0.385,1.167-0.946,1.614-1.681c0.077-0.398,0.324-0.958,0.74-1.673c0.416-0.714,0.925-1.418,1.537-2.11
						c0.612-0.691,1.275-1.305,1.994-1.85c0.719-0.539,1.439-0.858,2.153-0.946c0.93-0.113,1.871-0.09,2.837,0.059
						c0.966,0.154,1.866,0.473,2.693,0.961c0.832,0.491,1.542,1.156,2.138,2.01c0.591,0.851,0.971,1.938,1.131,3.256
						c0.288,2.323,0.077,4.413-0.627,6.268c-0.699,1.855-1.645,3.603-2.827,5.247c-1.182,1.645-2.487,3.253-3.916,4.831
						c-1.429,1.58-2.724,3.276-3.891,5.091c-1.161,1.819-2.076,3.824-2.729,6.026c-0.663,2.2-0.817,4.713-0.468,7.54
						c0.129,1.064,0.632,1.786,1.511,2.159c0.884,0.37,1.866,0.488,2.95,0.354c1.028-0.126,1.912-0.627,2.673-1.511
						c0.761-0.879,1.28-2.092,1.563-3.641c0.678-1.909,1.634-3.631,2.863-5.168c1.228-1.537,2.544-3.027,3.952-4.479
						c1.408-1.444,2.811-2.924,4.209-4.433c1.398-1.511,2.621-3.212,3.675-5.109c1.054-1.891,1.825-4.05,2.318-6.471
						C288.675,34.694,288.721,31.836,288.315,28.544z"/>
				</g>
				<g>
					<path style="fill:#000D3E;" d="M297.033,96.165c-0.446-0.946-1.363-1.715-2.747-2.302c-0.803-0.341-1.55-0.514-2.237-0.518
						c-0.69-0.006-1.304,0.122-1.848,0.377c-0.54,0.255-1.013,0.609-1.411,1.058c-0.399,0.452-0.714,0.95-0.947,1.502
						c-0.279,0.656-0.419,1.257-0.413,1.807c0.002,0.551,0.121,1.05,0.354,1.499c0.232,0.451,0.568,0.855,1.009,1.212
						c0.437,0.359,0.969,0.668,1.586,0.93c0.767,0.326,1.463,0.505,2.08,0.534c0.619,0.027,1.172-0.035,1.651-0.191
						c0.479-0.154,0.891-0.373,1.236-0.649c0.342-0.276,0.63-0.554,0.858-0.835c0.228-0.28,0.402-0.541,0.522-0.778
						c0.12-0.238,0.192-0.387,0.22-0.447C297.451,98.174,297.481,97.109,297.033,96.165z"/>
					<path style="fill:#000D3E;" d="M318.877,76.768c0.625-1.469,0.863-2.867,0.712-4.191c-0.148-1.326-0.543-2.533-1.181-3.624
						c-0.636-1.089-1.451-2.035-2.437-2.839c-0.986-0.805-1.993-1.424-3.017-1.86c-0.835-0.355-1.719-0.615-2.651-0.785
						c-0.935-0.171-1.878-0.239-2.831-0.2c-0.953,0.039-1.892,0.191-2.812,0.46c-0.923,0.268-1.787,0.655-2.594,1.162
						c-0.414,0.276-0.695,0.589-0.843,0.941c-0.206,0.482-0.319,0.958-0.34,1.425c-0.02,0.469,0.02,0.902,0.127,1.302
						c0.106,0.401,0.278,0.753,0.513,1.056c0.236,0.302,0.514,0.524,0.829,0.658c0.385,0.163,0.793,0.238,1.22,0.227
						c0.43-0.01,0.861-0.137,1.299-0.376c0.155-0.178,0.441-0.388,0.858-0.626c0.417-0.238,0.877-0.445,1.385-0.614
						c0.508-0.17,1.02-0.286,1.54-0.351c0.519-0.063,0.973-0.014,1.357,0.15c0.5,0.213,0.966,0.498,1.409,0.854
						c0.441,0.358,0.801,0.779,1.075,1.265c0.276,0.488,0.44,1.029,0.491,1.631c0.05,0.6-0.074,1.257-0.377,1.965
						c-0.53,1.252-1.243,2.241-2.135,2.969c-0.89,0.73-1.873,1.334-2.945,1.818c-1.072,0.484-2.195,0.914-3.372,1.292
						c-1.177,0.379-2.321,0.856-3.434,1.43c-1.112,0.577-2.154,1.32-3.122,2.237c-0.972,0.913-1.779,2.132-2.425,3.655
						c-0.244,0.572-0.201,1.082,0.133,1.524c0.337,0.443,0.796,0.787,1.38,1.035c0.554,0.235,1.144,0.24,1.783,0.016
						c0.638-0.221,1.251-0.68,1.843-1.377c0.896-0.763,1.876-1.351,2.94-1.767c1.064-0.416,2.158-0.783,3.288-1.104
						c1.127-0.317,2.263-0.654,3.404-1.007c1.142-0.354,2.251-0.854,3.331-1.501c1.079-0.645,2.093-1.507,3.044-2.581
						C317.273,79.965,318.126,78.541,318.877,76.768z"/>
				</g>
			</g>
		</g>
		<g style="clip-path:url(#SVGID_00000013173644281500963120000008474627300990669197_);">
			<g>
				<g>
					<path style="fill:#FFCFB0;" d="M388.998,132.308c1.376-1.9,2.776-3.758,4.316-5.527c-4.521-4.823-10.72-11.5-11.436-12.272
						c-0.133-0.43-0.199-0.903-0.127-1.397c0.104-0.711,0.794-3.659,0.679-4.349c-0.115-0.689-0.606-2.817-0.091-3.871
						c0.377-0.772-1.22-0.455-1.578,0.427c-0.47,1.157-0.432,2.594-0.599,2.775c-0.167,0.181-0.089,0.563-1.198-0.618
						c-1.11-1.181-2.245-2.308-2.973-3.698c-0.728-1.389-2.509-4.022-3.105-4.116c-0.641-0.101-0.786,0.629-0.707,0.868
						c0.049,0.147,1.066,2.001,1.531,2.724c0.423,0.657,1.979,3.228,1.596,3.157c-0.382-0.071-2.214-2.467-2.74-3.025
						c-0.527-0.558-2.766-2.971-3.467-2.829c-0.701,0.142-0.744,0.981-0.612,1.121c0.132,0.139,0.383,0.585,0.383,0.585
						s-0.478-0.195-0.862,0.205c-0.384,0.4-0.307,0.796,0.04,1.13c0.347,0.334,2.235,3.311,3.065,4.014
						c0.83,0.703,1.159,1.544,0.838,1.434c-0.321-0.109-3.755-3.289-3.999-3.281s-0.618,0.433-0.518,0.966
						c0.1,0.534,0.875,1.449,1.722,2.116c0.847,0.667,1.551,1.126,2.032,1.922c0.481,0.796,2.685,3.849,3.958,4.504
						c0.243,0.125,0.479,0.315,0.71,0.547c0.217,0.383,1.769,3.12,3.543,6.104c0.068,0.128,0.136,0.256,0.205,0.383
						c0.791,1.447,1.578,2.721,2.339,3.787c0.693,1.097,1.337,2.075,1.859,2.792c1.282,1.764,2.894,4.132,4.38,6.151
						C388.151,134.092,388.399,133.136,388.998,132.308z"/>
				</g>
				<g>
					<path style="fill:#6DB0F0;" d="M416.059,107.968c0,0-4.727,1.744-6.588,3.161c-3.036,2.313-10.636,13.182-14.597,16.479
						c-0.602,0.501-10.393-15.29-11.794-14.764c-1.401,0.526-10.335,9.634-10.335,11.21c0,1.576,14.87,24.027,19.073,25.779
						c4.204,1.752,18.733-8.726,21.446-9.997C415.536,138.773,416.059,107.968,416.059,107.968z"/>
				</g>
				<g>
					<g>
						<path style="fill:#000D3E;" d="M453.572,248.159c0,0,0.295-1.546,1.419-0.271c1.123,1.275,2.395,1.674,3.025,5.551
							c0.537,3.303,3.611,11.152,3.089,14.644c-0.492,3.297,0.204,9.878-5.498,11.016c-1.363,0.272-3.617-1.421-4.436-5.773
							c-0.819-4.351-3.261-12.052-4.432-15.797c-1.335-4.266-1.423-5.886-0.895-7.696
							C446.572,247.333,453.572,248.159,453.572,248.159z"/>
					</g>
					<g>
						<path style="fill:#000D3E;" d="M409.709,276.391c0,0,0.726-0.983,2.098-0.081c1.372,0.902,1.083,3.301,2.547,4.104
							c1.464,0.803,2.95,2.178,0.189,4.864c-2.761,2.686-4.994,4.206-5.789,8.344c-0.794,4.138-1.172,4.248-3.28,6.527
							c-2.108,2.279-6.201,5.112-7.07,4.86c-0.869-0.253-1.466-2.092-1.441-2.666s1.557-4.168,2.009-7.29
							c0.452-3.122,1.462-7.841,1.603-9.136c0.141-1.295,0.336-4.933,1.14-5.107C402.519,280.634,409.709,276.391,409.709,276.391z"
							/>
					</g>
					<g>
						<path style="fill:#FFCFB0;" d="M426.155,172.12l22.74,2.592c-2.534,12.232-10.016,35.031-10.081,36.054
							c-0.076,1.199,2.237,3.22,3.356,6.12c1.119,2.9,8.777,22.864,9.673,25.204c0.896,2.339,3.09,4.797,3.147,5.798
							c0.056,1.001-0.234,6.036-2.181,7.101c-1.948,1.066-4.696-0.214-5.411-1.034c-0.715-0.82-1.788-4.583-2.096-6.669
							c-0.309-2.086-11.274-17.131-14.365-22.789c-3.091-5.657-4.322-8.838-4.952-9.854c-0.631-1.016-2.608-3.868-2.934-7.96
							c-0.326-4.092,1.3-17.663,1.524-22.168C424.663,182.72,425.355,177.614,426.155,172.12z"/>
					</g>
					<g>
						<path style="fill:#FFCFB0;" d="M406.099,209.853c-0.599-10.483,1.358-33.865,1.358-33.865s0.804-1.478,1.749-3.209
							l19.28-0.749c-0.391,6.456-1.034,15.426-1.797,19.567c-1.262,6.854-5.469,28.844-6.503,31.749
							c-1.033,2.906-0.749,7.766-2.041,13.834c-1.292,6.068-7.355,30.191-7.17,32.476c0.184,2.285-0.635,8.239-1.041,10.07
							c-0.406,1.831-2.548,3.251-3.967,3.593c-1.419,0.342-4.344-1.168-4.319-2.984c0.025-1.816,2.143-36.483,2.7-39.37
							C404.904,238.077,406.697,220.336,406.099,209.853z"/>
					</g>
				</g>
				<g>
					<path style="fill:#000D3E;" d="M407.602,170.084c0,0-2.336,18.677-3.27,27.376c-0.934,8.699-0.234,32.11-1.985,41.32
						c-1.752,9.211-3.853,32.712-4.321,34.886c-0.467,2.175,15.414,0.512,16.465,0c1.051-0.512,3.503-14.418,3.62-18.384
						c0.117-3.966,2.803-15.863,3.854-20.212c1.051-4.35,4.905-29.935,4.905-29.935l4.437-36.203L407.602,170.084z"/>
				</g>
				<g>
					<path style="fill:#000D3E;" d="M449.875,167.882c0,0,0.701,7.19,0,11.911c-0.701,4.721-9.058,29.86-9.292,31.144
						c-0.234,1.285,7.279,11.911,8.68,15.181c1.401,3.27,7.854,13.702,7.854,13.702s-9.057,8.057-13.611,8.057
						c0,0-10.516-14.671-15.62-21.76c-5.103-7.089-10.183-17.167-8.84-24.371c0.278-1.492,10.781-37.31,10.781-37.31
						L449.875,167.882z"/>
				</g>
				<g>
					<path style="fill:#6DB0F0;" d="M453.353,174.965c-2.781-11.286-8.424-33.631-8.457-35.96c-0.071-5-8.105-31.359-8.105-31.359
						l-2.664,3.636l-1.716,2.292l-16.635-3.467c0,0-5.583,33.958-5.933,44.958c-0.086,2.708-6.854,19.151-4.285,19.9
						c0,0,3.641,3.213,14.422,2.23c6.417-0.585,22.227,2.14,29.427,1.828C454.847,178.787,453.353,174.965,453.353,174.965z"/>
				</g>
				<g>
					<path style="fill:#FFCFB0;" d="M454.435,147.662c-1.89-1.377-3.737-2.777-5.495-4.318c-4.82,4.491-11.492,10.649-12.263,11.361
						c-0.429,0.132-0.901,0.196-1.393,0.122c-0.709-0.105-3.644-0.802-4.332-0.69c-0.687,0.112-2.809,0.596-3.858,0.08
						c-0.768-0.378-0.457,1.214,0.421,1.574c1.152,0.472,2.584,0.438,2.764,0.605c0.18,0.167,0.561,0.09-0.619,1.193
						c-1.18,1.103-2.307,2.23-3.694,2.952c-1.387,0.721-4.015,2.488-4.111,3.082c-0.103,0.638,0.624,0.785,0.863,0.707
						c0.147-0.048,1.998-1.056,2.719-1.517c0.656-0.419,3.223-1.962,3.151-1.581c-0.071,0.381-2.465,2.199-3.022,2.722
						c-0.557,0.523-2.969,2.748-2.829,3.447c0.14,0.699,0.976,0.744,1.115,0.613c0.139-0.131,0.584-0.38,0.584-0.38
						s-0.196,0.475,0.202,0.859c0.398,0.384,0.792,0.308,1.126-0.036c0.334-0.344,3.306-2.217,4.009-3.043
						c0.703-0.826,1.542-1.15,1.432-0.831c-0.11,0.319-3.288,3.732-3.282,3.975c0.007,0.243,0.43,0.617,0.962,0.519
						c0.532-0.098,1.447-0.868,2.114-1.71c0.667-0.842,1.126-1.543,1.921-2.019c0.794-0.477,3.843-2.664,4.5-3.931
						c0.125-0.242,0.315-0.476,0.547-0.706c0.382-0.215,3.115-1.754,6.094-3.513c0.128-0.068,0.256-0.135,0.382-0.204
						c1.444-0.785,2.716-1.565,3.781-2.32c1.096-0.688,2.072-1.327,2.788-1.844c1.762-1.273,4.126-2.872,6.142-4.347
						C456.21,148.512,455.258,148.262,454.435,147.662z"/>
				</g>
				<g>
					<path style="fill:#6DB0F0;" d="M436.791,107.646c0,0,13.154,4.989,15.116,8.855c2.118,4.174,9.704,24.756,9.042,29.919
						c-0.441,3.444-15.733,16.823-17.798,16.69s-11.59-13.607-8.873-15.878c2.717-2.272,8.431-7.846,9.368-9.303
						C444.584,136.473,436.791,107.646,436.791,107.646z"/>
				</g>
				<g>
					<g>
						<g>
							<path style="fill:#000D3E;" d="M413.967,104.51c0,0,1.861,0.587,3.84,0.382c1.979-0.205,3.206-0.785,4.877-0.68
								c1.671,0.105,3.861,1.032,6.22,0.803c2.359-0.23,2.225-1.205,3.828-1.194c1.603,0.011,2.738,0.344,4.486-0.025
								c1.748-0.368,0.694-7.795-1.82-8.114c-2.514-0.319-16.546,0.643-16.546,0.643L413.967,104.51z"/>
						</g>
					</g>
				</g>
				<g>
					<g>
						<g>
							<path style="fill:#000D3E;" d="M430.928,75.582c-0.003-0.089,0.225-5.639-3.865-6.372c-4.09-0.734-6.39,2.038-9.04,3.749
								c-2.65,1.71-4.246,3.767-4.19,7.455s-2.953,2.635-3.931,6.79c-0.589,2.502,1.134,5.284,0.991,7.551
								c-0.143,2.268-2.958,7.169-1.072,8.852c1.886,1.683,12.241,0.417,12.385,0.411
								C422.352,104.013,430.928,75.582,430.928,75.582z"/>
						</g>
					</g>
				</g>
				<g>
					<g>
						<g>
							<path style="fill:#000D3E;" d="M417.504,90.806c0,0-2.217,3.491-1.371,5.968c0.846,2.477,1.544,4.373,0.805,5.748
								c-0.74,1.375-3.131,1.966-2.971,1.988c3.054,0.409,7.732-0.482,7.732-0.482l0.445-2.157L417.504,90.806z"/>
						</g>
					</g>
				</g>
				<g>
					<g>
						<g>
							<path style="fill:#000D3E;" d="M428.644,73.388c0,0-2.229,2.699-1.052,4.244c1.177,1.546,1.871,1.112,1.985,2.293
								c0.114,1.18-0.501,3.659,1.213,4.21c1.714,0.551,2.654-1.415,3.774,2.164c1.121,3.579-1.483,3.646-0.59,7.471
								c0.894,3.825,0.395,6.411-1.018,8.396c-1.413,1.985,3.405,2.422,6.776,1.937c2.889-0.415,5.014-2.193,6.359-6.177
								c1.22-3.613-0.599-8.354-3.33-9.805c-2.731-1.451-2.651-3.209-3.477-7.559c-0.86-4.528-2.178-7.114-5.072-7.898
								C430.762,71.729,428.644,73.388,428.644,73.388z"/>
						</g>
					</g>
				</g>
				<g>
					<g>
						<g>
							<path style="fill:#000D3E;" d="M438.843,92.816c0,0-1.047,0.562-0.904,2.031c0.143,1.469,1.082,2.41,0.643,3.957
								c-0.439,1.547,1.674,3.989-1.363,4.992c0,0-2.765,0.704-4.404-0.354c-1.64-1.058-0.209-10.338-0.209-10.338L438.843,92.816z"
								/>
						</g>
					</g>
				</g>
				<g>
					<g>
						<g>
							<g>
								<g>
									<g>
										<g>
											<path style="fill:#FFC19C;" d="M437.292,87.629c0,0,3.201,0.353,3.289,3.127c0.089,2.838-4.456,2.518-4.456,2.518
												L437.292,87.629z"/>
										</g>
									</g>
								</g>
							</g>
							<g>
								<g>
									<g style="opacity:0.6;">
										<g>
											<path style="fill:#FFC19C;" d="M436.854,88.579c0,0,2.626,0.135,2.886,2.735c0,0-1.849-1.744-3.429-0.947L436.854,88.579
												z"/>
										</g>
									</g>
								</g>
							</g>
						</g>
						<g>
							<g>
								<g>
									<path style="fill:#000D3E;" d="M437.156,92.24c-0.004,0.31,0.243,0.564,0.553,0.569c0.31,0.004,0.564-0.243,0.568-0.553
										c0.004-0.31-0.243-0.564-0.553-0.569C437.415,91.683,437.16,91.93,437.156,92.24z"/>
								</g>
							</g>
						</g>
						<g>
							<g>
								<g>
									<g>
										<g>
											<path style="fill:#FFC19C;" d="M415.294,88.412c0,0-3.093,0.898-2.703,3.646c0.4,2.811,4.822,1.715,4.822,1.715
												L415.294,88.412z"/>
										</g>
									</g>
								</g>
							</g>
							<g>
								<g>
									<g style="opacity:0.6;">
										<g>
											<path style="fill:#FFC19C;" d="M415.889,89.273c0,0-2.563,0.584-2.373,3.19c0,0,1.521-2.035,3.215-1.522L415.889,89.273z
												"/>
										</g>
									</g>
								</g>
							</g>
						</g>
						<g>
							<g>
								<g>
									<path style="fill:#000D3E;" d="M416.221,92.931c0.057,0.304-0.143,0.598-0.447,0.655c-0.304,0.057-0.598-0.143-0.655-0.447
										c-0.057-0.304,0.143-0.598,0.447-0.655C415.871,92.427,416.164,92.627,416.221,92.931z"/>
								</g>
							</g>
						</g>
					</g>
					<g>
						<g>
							<g>
								<path style="fill:#FFCFB0;" d="M416.059,107.968c0,0,4.654-1.671,5.425-2.082c1.712-0.912,0.426-9.058,0.426-9.058
									l4.017-0.227l4.023,0.033c0,0-0.466,8.699,0.609,9.161c1.877,0.808,6.232,1.851,6.232,1.851
									c0.755,0.91-1.043,9.544-9.656,10.669C416.788,119.666,414.905,110.402,416.059,107.968z"/>
							</g>
						</g>
					</g>
					<g style="opacity:0.5;">
						<g>
							<g>
								<path style="fill:#FFC19C;" d="M421.683,105.731c1.481-1.331,0.216-8.697,0.216-8.697l4.017-0.239l4.023,0.046
									c0,0-0.253,3.882,0.13,7.735C428.214,105.492,425.161,106.079,421.683,105.731z"/>
							</g>
						</g>
					</g>
					<g>
						<g>
							<g>
								<path style="fill:#FFCFB0;" d="M414.958,84.857c0.269-6.659,3.49-8.785,5.518-9.938c2.125-1.208,3.863-1.457,5.402-1.388
									c1.535-0.133,3.282,0.045,5.455,1.163c2.075,1.068,5.38,3.06,5.924,9.702c0.338,4.124-0.102,7.875-1.129,10.98
									c-1.775,5.369-6.3,8.791-9.616,8.893c-3.387,0.104-7.883-3.766-10.003-8.564C415.197,92.732,414.792,88.957,414.958,84.857z
									"/>
							</g>
						</g>
					</g>
					<g>
						<g>
							<g>
								<g>
									<g>
										<path style="fill:#000D3E;" d="M422.161,87.142c-1.928-0.249-4.256,1.137-4.466,1.635
											c-0.014,0.034-0.023,0.068-0.028,0.102l-0.068,0.09l0.116,0.194c0.122,0.205,0.342,0.265,1.276,0.064
											c0.117-0.025,0.246-0.055,0.387-0.089c3.614-0.867,3.596-1.203,3.581-1.499C422.938,87.242,422.413,87.174,422.161,87.142
											z"/>
									</g>
								</g>
							</g>
							<g>
								<g>
									<g>
										<path style="fill:#000D3E;" d="M434.419,89.17c-0.004-0.046-0.017-0.095-0.04-0.147c-0.252-0.566-2.429-2.165-4.385-1.918
											c-0.232,0.029-0.774,0.097-0.808,0.509c-0.024,0.288-0.057,0.682,3.505,1.756c0.806,0.243,1.203,0.307,1.425,0.258
											c0.113-0.024,0.18-0.078,0.232-0.151l0.126-0.231L434.419,89.17z"/>
									</g>
								</g>
							</g>
						</g>
						<g>
							<g>
								<g>
									<path style="fill:#000D3E;" d="M429.324,91.916c0.017,0.718,0.464,1.291,0.998,1.278c0.534-0.013,0.952-0.606,0.935-1.324
										c-0.017-0.719-0.464-1.291-0.998-1.278C429.725,90.604,429.307,91.197,429.324,91.916z"/>
								</g>
							</g>
						</g>
						<g>
							<g>
								<g>
									<path style="fill:#000D3E;" d="M420.165,92.272c0.017,0.718,0.464,1.29,0.998,1.277c0.534-0.013,0.952-0.606,0.935-1.325
										c-0.017-0.718-0.464-1.29-0.998-1.277C420.566,90.961,420.147,91.553,420.165,92.272z"/>
								</g>
							</g>
						</g>
					</g>
					<g>
						<g>
							<g>
								<g>
									<path style="fill:#FC9B7E;" d="M429.868,95.639c-0.251,1.487,1.094,2.703,2.548,2.303c0.733-0.202,1.3-0.83,1.427-1.579
										c0.252-1.487-1.094-2.703-2.548-2.303C430.563,94.262,429.995,94.89,429.868,95.639z"/>
								</g>
							</g>
						</g>
						<g>
							<g>
								<g>
									<path style="fill:#FC9B7E;" d="M417.122,96.752c0.056,1.113,1.004,1.97,2.117,1.914c1.113-0.056,1.97-1.004,1.914-2.117
										c-0.056-1.113-1.004-1.97-2.117-1.914C417.923,94.691,417.066,95.639,417.122,96.752z"/>
								</g>
							</g>
						</g>
					</g>
					<g>
						<g>
							<g>
								<path style="fill:#FC9B7E;" d="M424.955,96.054c0.078-0.003,0.149-0.053,0.175-0.131c0.034-0.101-0.021-0.21-0.121-0.244
									c-1.124-0.378-1.474-1.275-1.512-1.476c0.029-0.034,0.091-0.092,0.147-0.145c0.25-0.237,0.668-0.634,1.077-1.364
									c0.622-1.112,0.409-3.247,0.399-3.337c-0.011-0.106-0.104-0.18-0.211-0.172c-0.106,0.011-0.183,0.106-0.172,0.211
									c0.002,0.021,0.21,2.104-0.352,3.109c-0.38,0.679-0.772,1.051-1.005,1.272c-0.163,0.154-0.253,0.239-0.268,0.361
									c-0.027,0.222,0.347,1.424,1.776,1.905C424.909,96.052,424.932,96.055,424.955,96.054z"/>
							</g>
						</g>
					</g>
				</g>
				<g>
					<g>
						<path style="fill:#000D3E;" d="M428.608,72.812c1.984-0.126,4.273,1.119,6.301,3.408c1.831,2.066,3.144,4.661,3.426,6.772
							c0.256,1.912,1.029,3.706,1.592,5.017c0.589,1.367,1.144,1.975,1.507,2.495c1.009,1.447,3.008,6.284,2.844,6.29
							c-0.275,0.011-5.575,2.04-5.697,2.009c-4.407-1.093-4.033-7.66-5.332-11.838c-0.357-1.149-0.573-4.027-0.632-5.231
							c-0.075-1.523-6.706-2.133-7.924-3.198c-2.549-2.23,3.421-4.901,3.397-4.978l-0.217-0.702L428.608,72.812z"/>
					</g>
				</g>
				<g>
					<g>
						<path style="fill:#000D3E;" d="M412.483,85.733c0.768-2.5,2.174-4.765,3.05-7.23c0.213-0.599-0.022-1.051-0.424-1.297
							c1.986-2.26,5.747-5.27,9.263-5.758c2.207-0.305,4.012,0.386,5.371,2.056l0.164,0.201l-0.042,0.256
							c-0.039,0.243-1.935,3.5-6.249,5.012c-3.908,1.37-4.927,2.675-5.824,6.744c-1.11,5.031-2.333,7.619-4.729,7.712
							c-0.147,0.006-0.32-1.354-0.47-1.37c-0.817-0.088-0.772,0.772-1.186,0.56C411.602,90.305,411.8,87.954,412.483,85.733z"/>
					</g>
				</g>
				<g>
					<g>
						<path style="fill:#FFFFFF;" d="M429.326,98.279c0,0-5.663,0.472-6.867,0.71c-0.271,0.054,1.12,1.646,3.421,1.449
							C428.967,100.174,429.326,98.279,429.326,98.279z"/>
					</g>
				</g>
				<g>
					<g>
						<path style="fill:#FB4D46;" d="M436.791,107.646"/>
					</g>
				</g>
				<g>
					<path style="fill:#4599DD;" d="M412.235,139.985c0,0,0.759-2.649,0.876-3.642c0.117-0.993,0.963-4.992,0.847-5.664
						c-0.117-0.671-0.631-0.088-0.856,1.139c-0.224,1.226-0.808,4.846-0.867,4.905c-0.058,0.058-0.409-3.708-0.642-4.554
						c-0.233-0.847-0.525-0.876-0.817-0.73c-0.292,0.146,0.088,1.898,0.117,3.065c0.029,1.168,0.642,4.977,0.672,5.481
						C411.592,140.489,412.084,140.526,412.235,139.985z"/>
				</g>
				<g>
					<path style="fill:#4599DD;" d="M442.935,139.447c0,0,1.095-0.167,1.138-4.068c0.044-3.902,0.438-8.062,0-7.755
						c-0.438,0.306-1.453,3.209-1.138,4.788c0.315,1.579,0.275,4.233-0.06,4.058c-0.335-0.175-0.948-4.379-1.167-5.167
						c-0.219-0.788-1.095-1.158-1.27-0.929s1.708,8.199,1.664,9.074C442.059,140.323,442.935,139.447,442.935,139.447z"/>
				</g>
				<g>
					<path style="fill:#F5C828;" d="M445.052,72.373c-0.375,0-0.778-0.015-1.206-0.046c-2.493-0.177-5.637-0.867-8.854-1.942
						c-3.216-1.075-6.143-2.414-8.241-3.772c-2.576-1.667-3.606-3.139-3.15-4.502c0.455-1.362,2.165-1.922,5.223-1.701
						c2.493,0.177,5.637,0.867,8.854,1.942c3.216,1.075,6.143,2.415,8.241,3.773c2.575,1.667,3.606,3.139,3.15,4.501l0,0
						C448.678,71.798,447.359,72.373,445.052,72.373z M425.624,62.788c0.242,0.794,3.256,3.333,10.037,5.6
						c6.78,2.266,10.715,2.05,11.385,1.562c-0.242-0.794-3.257-3.333-10.037-5.6C430.231,62.084,426.297,62.299,425.624,62.788z"/>
				</g>
			</g>
			<path style="fill:#000D3E;" d="M398.017,87.112c0,0-6.473,0.24-7.923-6.742c3.678-3.536,5.977-8.497,5.977-14.002
				c0-10.735-8.702-19.437-19.437-19.437c-10.735,0-19.437,8.702-19.437,19.437c0,10.735,8.702,19.437,19.437,19.437
				c1.513,0,2.98-0.19,4.394-0.517C385.251,87.045,391.46,88.676,398.017,87.112z"/>
			<g>
				<polygon style="fill:#FFFFFF;" points="373.143,74.299 366.346,65.11 368.887,63.23 373.431,69.374 384.097,58.008 
					386.402,60.171 				"/>
			</g>
		</g>
		<g style="clip-path:url(#SVGID_00000013173644281500963120000008474627300990669197_);">
			<g>
				<g>
					<path style="fill:#000D3E;" d="M61.973,252.555c0,0-0.295-1.546-1.419-0.271c-1.123,1.275-1.204,2.704-1.201,6.05
						c0.003,3.346-2.708,10.745-1.752,14.145c0.956,3.4,4.142,11.322,5.498,11.016c1.356-0.306,3.617-1.421,4.436-5.773
						c0.819-4.351,0.766-11.906,1.272-15.797c0.506-3.891,0.353-5.149,0.895-7.696C70.244,251.682,61.973,252.555,61.973,252.555z"
						/>
					<path style="fill:#000D3E;" d="M102.746,281.836c0,0-0.726-0.983-2.098-0.082c-1.372,0.902-1.084,3.301-2.547,4.104
						c-1.464,0.803-2.95,2.178-0.189,4.864c2.761,2.686,4.994,4.206,5.789,8.344c0.794,4.138,1.172,4.248,3.28,6.527
						c2.108,2.279,6.201,5.112,7.07,4.86c0.869-0.253,1.466-2.092,1.441-2.666c-0.026-0.574-1.557-4.168-2.009-7.29
						c-0.452-3.122-1.462-7.841-1.603-9.136c-0.141-1.295-0.336-4.933-1.14-5.107C109.936,286.079,102.746,281.836,102.746,281.836z
						"/>
					<path style="fill:#FFCFB0;" d="M86.3,180.725l-22.74,2.592c2.534,12.232,10.016,35.031,10.081,36.054
						c0.076,1.199-2.237,3.22-3.356,6.12c-1.119,2.901-5.687,18.655-6.583,20.995c-0.896,2.339-3.09,4.797-3.146,5.798
						c-0.056,1.001,0.234,6.036,2.181,7.101c1.947,1.066,4.696-0.214,5.412-1.034c0.715-0.82,1.788-4.584,2.096-6.669
						c0.309-2.086,8.184-12.922,11.275-18.58c3.091-5.657,4.322-8.838,4.952-9.854c0.631-1.016,2.608-3.868,2.934-7.96
						c0.326-4.092-1.3-17.663-1.524-22.168C87.791,191.325,87.1,186.219,86.3,180.725z"/>
					<path style="fill:#FFCFB0;" d="M106.356,218.458c0.599-10.483-1.358-33.865-1.358-33.865s-0.804-1.478-1.749-3.209
						l-19.28-0.749c0.39,6.456,1.034,15.426,1.797,19.567c1.262,6.854,5.469,28.844,6.503,31.749
						c1.033,2.906,0.749,7.766,2.041,13.834c1.292,6.068,7.355,27.03,7.17,29.316c-0.184,2.285,0.635,8.239,1.041,10.07
						c0.406,1.831,2.548,3.251,3.967,3.593c1.42,0.342,4.344-1.168,4.319-2.984c-0.025-1.816-2.143-33.323-2.7-36.21
						C107.551,246.681,105.757,228.941,106.356,218.458z"/>
				</g>
				<path style="fill:#FFC19C;" d="M104.998,184.592c0,0-0.804-1.478-1.749-3.209L86.3,180.725l-2.331-0.091l-20.777,0.338
					c1.248,6.024,3.466,14.298,5.832,22.447c3.782,0.931,7.679,1.638,10.65,1.622c2.499-0.014,4.73-0.531,6.768-1.223
					c0.789-0.268,1.548-0.561,2.282-0.864c3.632-1.499,6.635-3.193,9.463-2.818c1.915,0.255,4.871-0.556,7.759-1.767
					C105.523,190.867,104.998,184.592,104.998,184.592z"/>
				<path style="fill:#FB4D46;" d="M78.328,119.757l-2.664-3.506c0,0-8.035,25.415-8.105,30.235
					c-0.039,2.645,1.919,19.417-3.315,31.144c-4.755,10.657-8.898,17.469-8.321,19.064c0.161,0.445,15.587,5.979,23.844,5.934
					c8.257-0.045,13.638-5.553,18.513-4.905s20.776-8.372,20.853-10.609c0.075-2.184-6.282-0.984-8.992-9.003
					c-2.12-6.272-7.401-12.238-7.53-16.14c-0.351-10.606-1.277-30.232-1.277-30.232l-21.29-9.772"/>
				<path style="fill:#FB4D46;" d="M96.396,116.573c0,0,5.563,2.164,7.029,3.472c1.466,1.308,13.256,21.324,14.371,25.259
					c1.115,3.935-2.246,10.79-6.315,11.33c-4.069,0.54-11.785-1.014-12.404-1.434c-0.619-0.421-10.067-28.967-9.849-30.315
					C89.446,123.536,96.396,116.573,96.396,116.573z"/>
				<g>
					<g>
						<path style="fill:#D73532;" d="M53.796,192.434c-0.313-0.012-0.621-0.138-0.859-0.377c-0.499-0.502-0.495-1.313,0.007-1.811
							l86.502-85.854c0.502-0.498,1.314-0.495,1.81,0.007c0.499,0.502,0.495,1.313-0.007,1.811l-86.502,85.854
							C54.486,192.323,54.139,192.447,53.796,192.434z"/>
					</g>
					<g>
						<path style="fill:#D73532;" d="M123.41,133.235c-2.812-0.109-5.588-1.23-7.701-3.355c-4.43-4.456-4.5-11.505-0.16-16.048
							l10.686-11.184c0.489-0.511,1.299-0.53,1.81-0.041c0.512,0.488,0.53,1.299,0.042,1.81l-10.686,11.184
							c-3.374,3.532-3.319,9.01,0.124,12.473c3.398,3.418,9.004,3.496,12.495,0.175l12.358-11.752
							c0.513-0.488,1.323-0.466,1.81,0.045c0.487,0.513,0.467,1.323-0.045,1.81l-12.358,11.752
							C129.463,132.312,126.416,133.352,123.41,133.235z"/>
					</g>
					<g>
						<path style="fill:#D73532;" d="M122.742,103.2l3.93,0.658c0.17,0.028,0.301,0.163,0.326,0.333l0.568,4.005
							c0.06,0.409,0.628,0.464,0.766,0.074l3.273-8.351c0.111-0.315-0.193-0.617-0.507-0.504l-8.424,3.023
							C122.29,102.574,122.34,103.132,122.742,103.2z"/>
					</g>
					<g>
						<path style="fill:#D73532;" d="M137.571,118.172l3.93,0.658c0.169,0.028,0.301,0.163,0.326,0.333l0.568,4.005
							c0.06,0.409,0.628,0.464,0.766,0.074l3.273-8.351c0.111-0.315-0.193-0.617-0.507-0.504l-8.424,3.023
							C137.118,117.546,137.168,118.104,137.571,118.172z"/>
					</g>
					<g>
						<path style="fill:#D73532;" d="M135.929,104.879l3.93,0.658c0.169,0.028,0.301,0.163,0.326,0.333l0.568,4.005
							c0.06,0.409,0.628,0.464,0.765,0.074l3.273-8.351c0.111-0.315-0.193-0.617-0.507-0.504l-8.424,3.023
							C135.476,104.253,135.526,104.812,135.929,104.879z"/>
					</g>
				</g>
				<path style="fill:#FFCFB0;" d="M74.642,161.747c0,0,5.343,2.632,6.339,3.042c0.997,0.411,1.673,1.162,1.646,1.848
					c-0.027,0.686-0.367,0.902-0.367,0.902s0.107,0.449-0.035,0.889c-0.142,0.44-0.421,0.518-0.421,0.518s0.1,0.284-0.001,0.725
					c-0.1,0.441-1.039,0.405-1.125,0.478c-0.086,0.073-0.15,0.656-0.559,1.212c-0.409,0.557-0.707,0.392-0.707,0.392
					s-0.303,0.675-0.484,1.075c-0.182,0.4-2.209,0.232-3.607-0.458s-4.9-4.91-4.969-4.913
					C70.284,167.454,74.642,161.747,74.642,161.747z"/>
				<path style="fill:#FFCFB0;" d="M101.719,150.03c0,0-3.874-4.19-4.624-4.9c-0.75-0.71-1.097-1.614-0.837-2.219
					c0.26-0.604,0.638-0.68,0.638-0.68s0.059-0.439,0.337-0.783c0.278-0.345,0.555-0.318,0.555-0.318s0.008-0.288,0.25-0.648
					c0.241-0.36,1.069-0.005,1.171-0.041c0.102-0.036,0.359-0.535,0.916-0.892c0.557-0.357,0.767-0.108,0.767-0.108
					s0.503-0.5,0.803-0.795c0.3-0.295,2.055,0.551,3.068,1.649c1.013,1.098,2.695,6.076,2.756,6.102
					C107.579,146.423,101.719,150.03,101.719,150.03z"/>
				<path style="fill:#FB4D46;" d="M75.664,116.251c0,0-13.154,4.99-15.115,8.855c-2.118,4.174-9.12,26.449-9.042,29.919
					c0.078,3.471,15.733,16.823,17.798,16.69c2.065-0.133,11.59-13.607,8.873-15.878c-2.717-2.272-8.431-7.846-9.368-9.303
					C67.871,145.077,75.664,116.251,75.664,116.251z"/>
				<g>
					<g>
						<path style="fill:#000D3E;" d="M98.487,113.115c0,0-1.861,0.587-3.84,0.382c-1.979-0.205-3.206-0.785-4.877-0.68
							c-1.671,0.105-3.861,1.032-6.22,0.803c-2.359-0.23-2.225-1.205-3.828-1.193c-1.603,0.011-2.737,0.344-4.486-0.025
							c-1.748-0.369-0.694-7.795,1.82-8.114c2.514-0.319,16.546,0.643,16.546,0.643L98.487,113.115z"/>
					</g>
				</g>
				<g>
					<g>
						<path style="fill:#000D3E;" d="M81.527,84.187c0.003-0.089-0.225-5.638,3.865-6.372c4.09-0.734,6.39,2.038,9.04,3.749
							c2.65,1.71,4.246,3.767,4.19,7.455c-0.057,3.689,2.953,2.635,3.931,6.79c0.589,2.502-1.134,5.283-0.991,7.551
							c0.143,2.268,2.958,7.169,1.072,8.852c-1.886,1.683-12.241,0.417-12.385,0.411C90.103,112.618,81.527,84.187,81.527,84.187z"
							/>
					</g>
				</g>
				<g>
					<g>
						<path style="fill:#000D3E;" d="M94.95,99.411c0,0,2.217,3.491,1.371,5.968c-0.846,2.477-1.544,4.373-0.805,5.748
							c0.74,1.375,3.131,1.966,2.971,1.988c-3.054,0.409-7.732-0.482-7.732-0.482l-0.445-2.157L94.95,99.411z"/>
					</g>
				</g>
				<g>
					<g>
						<path style="fill:#000D3E;" d="M83.811,81.993c0,0,2.229,2.699,1.052,4.244c-1.177,1.546-1.871,1.112-1.985,2.293
							c-0.114,1.181,0.501,3.659-1.213,4.21c-1.714,0.551-2.653-1.415-3.774,2.164c-1.121,3.579,1.483,3.646,0.59,7.471
							c-0.894,3.825-0.395,6.411,1.018,8.396c1.413,1.985-3.405,2.422-6.776,1.937c-2.889-0.415-5.014-2.193-6.359-6.177
							c-1.22-3.613,0.598-8.354,3.33-9.805c2.731-1.451,2.651-3.209,3.477-7.559c0.86-4.528,2.178-7.113,5.072-7.898
							C81.693,80.334,83.811,81.993,83.811,81.993z"/>
					</g>
				</g>
				<g>
					<g>
						<path style="fill:#000D3E;" d="M73.612,101.421c0,0,1.047,0.562,0.904,2.031c-0.143,1.469-1.082,2.41-0.643,3.957
							c0.439,1.547-1.675,3.989,1.363,4.992c0,0,2.765,0.704,4.404-0.354c1.64-1.058,0.209-10.338,0.209-10.338L73.612,101.421z"/>
					</g>
				</g>
				<g>
					<g>
						<g>
							<g>
								<g>
									<g>
										<path style="fill:#FFC19C;" d="M75.404,96.294c0,0-3.201,0.353-3.289,3.127c-0.09,2.838,4.455,2.518,4.455,2.518
											L75.404,96.294z"/>
									</g>
								</g>
							</g>
							<g>
								<g>
									<g style="opacity:0.6;">
										<path style="fill:#FFC19C;" d="M75.841,97.244c0,0-2.625,0.135-2.886,2.735c0,0,1.849-1.743,3.429-0.947L75.841,97.244z"
											/>
									</g>
								</g>
							</g>
						</g>
						<g>
							<g>
								<path style="fill:#000D3E;" d="M75.54,100.905c0.004,0.31-0.243,0.564-0.553,0.568c-0.31,0.004-0.564-0.243-0.568-0.553
									c-0.004-0.31,0.243-0.564,0.553-0.568C75.281,100.348,75.536,100.596,75.54,100.905z"/>
							</g>
						</g>
						<g>
							<g>
								<g>
									<g>
										<path style="fill:#FFC19C;" d="M97.402,97.077c0,0,3.093,0.898,2.703,3.646c-0.4,2.811-4.822,1.715-4.822,1.715
											L97.402,97.077z"/>
									</g>
								</g>
							</g>
							<g>
								<g>
									<g style="opacity:0.6;">
										<path style="fill:#FFC19C;" d="M96.807,97.938c0,0,2.563,0.584,2.373,3.19c0,0-1.521-2.035-3.215-1.522L96.807,97.938z"/>
									</g>
								</g>
							</g>
						</g>
						<g>
							<g>
								<path style="fill:#000D3E;" d="M96.475,101.597c-0.057,0.304,0.143,0.598,0.447,0.655c0.304,0.057,0.598-0.143,0.655-0.447
									c0.057-0.304-0.143-0.598-0.447-0.655C96.825,101.092,96.532,101.292,96.475,101.597z"/>
							</g>
						</g>
					</g>
					<g>
						<g>
							<path style="fill:#FFCFB0;" d="M96.396,116.573c0,0-4.654-1.671-5.425-2.082c-1.712-0.912-0.426-9.058-0.426-9.058
								l-4.017-0.227l-4.023,0.033c0,0,0.466,8.698-0.609,9.161c-1.877,0.808-6.232,1.851-6.232,1.851
								c-0.755,0.91,1.043,9.544,9.656,10.669C95.666,128.271,97.55,119.007,96.396,116.573z"/>
						</g>
					</g>
					<g style="opacity:0.5;">
						<g>
							<path style="fill:#FFC19C;" d="M90.772,114.336c-1.481-1.331-0.215-8.697-0.215-8.697L86.54,105.4l-4.024,0.046
								c0,0,0.254,3.882-0.13,7.735C84.241,114.097,87.293,114.684,90.772,114.336z"/>
						</g>
					</g>
					<g>
						<g>
							<path style="fill:#FFCFB0;" d="M97.497,93.462c-0.269-6.659-3.49-8.785-5.518-9.938c-2.125-1.208-3.863-1.457-5.402-1.388
								c-1.535-0.133-3.282,0.045-5.455,1.163c-2.075,1.068-5.38,3.059-5.924,9.702c-0.338,4.124,0.102,7.875,1.129,10.98
								c1.775,5.369,6.3,8.791,9.616,8.893c3.387,0.104,7.883-3.766,10.003-8.564C97.258,101.337,97.663,97.562,97.497,93.462z"/>
						</g>
					</g>
					<g>
						<g>
							<g>
								<g>
									<path style="fill:#000D3E;" d="M90.294,95.747c1.928-0.249,4.256,1.137,4.466,1.635c0.014,0.034,0.023,0.068,0.028,0.102
										l0.068,0.09l-0.116,0.194c-0.122,0.205-0.342,0.265-1.276,0.063c-0.117-0.025-0.246-0.055-0.387-0.089
										c-3.614-0.867-3.596-1.203-3.581-1.499C89.517,95.847,90.042,95.779,90.294,95.747z"/>
								</g>
							</g>
							<g>
								<g>
									<path style="fill:#000D3E;" d="M78.036,97.775c0.004-0.046,0.017-0.095,0.04-0.147c0.252-0.566,2.429-2.166,4.385-1.918
										c0.232,0.029,0.774,0.097,0.808,0.509c0.024,0.288,0.057,0.682-3.505,1.756c-0.806,0.243-1.203,0.307-1.425,0.258
										c-0.113-0.024-0.18-0.078-0.233-0.151l-0.126-0.231L78.036,97.775z"/>
								</g>
							</g>
						</g>
						<g>
							<g>
								<path style="fill:#000D3E;" d="M83.131,100.521c-0.018,0.719-0.464,1.291-0.998,1.278c-0.534-0.013-0.952-0.606-0.935-1.325
									c0.018-0.718,0.464-1.29,0.998-1.277C82.73,99.209,83.148,99.802,83.131,100.521z"/>
							</g>
						</g>
						<g>
							<g>
								<path style="fill:#000D3E;" d="M92.29,100.877c-0.017,0.718-0.464,1.29-0.998,1.278c-0.534-0.013-0.952-0.606-0.935-1.325
									c0.018-0.718,0.464-1.291,0.998-1.278C91.889,99.565,92.308,100.158,92.29,100.877z"/>
							</g>
						</g>
					</g>
					<g>
						<g>
							<g>
								<path style="fill:#FC9B7E;" d="M81.973,104.228c0.251,1.487-1.094,2.703-2.548,2.303c-0.733-0.202-1.3-0.83-1.427-1.579
									c-0.252-1.487,1.094-2.703,2.548-2.303C81.279,102.851,81.847,103.479,81.973,104.228z"/>
							</g>
						</g>
						<g>
							<g>
								<path style="fill:#FC9B7E;" d="M94.72,105.34c-0.056,1.113-1.004,1.97-2.117,1.914c-1.113-0.056-1.97-1.004-1.914-2.117
									c0.056-1.113,1.004-1.97,2.117-1.914S94.776,104.227,94.72,105.34z"/>
							</g>
						</g>
					</g>
					<g>
						<g>
							<path style="fill:#FC9B7E;" d="M87.5,104.659c-0.077-0.003-0.149-0.053-0.175-0.131c-0.034-0.101,0.021-0.21,0.121-0.244
								c1.124-0.378,1.475-1.275,1.512-1.476c-0.029-0.034-0.091-0.092-0.146-0.145c-0.25-0.237-0.668-0.634-1.077-1.364
								c-0.622-1.112-0.409-3.247-0.399-3.337c0.011-0.106,0.104-0.18,0.211-0.172c0.106,0.011,0.183,0.106,0.172,0.212
								c-0.002,0.021-0.21,2.104,0.352,3.109c0.38,0.679,0.772,1.051,1.005,1.272c0.163,0.154,0.253,0.239,0.268,0.361
								c0.027,0.222-0.347,1.424-1.776,1.905C87.546,104.657,87.523,104.66,87.5,104.659z"/>
						</g>
					</g>
				</g>
				<g>
					<path style="fill:#000D3E;" d="M83.847,81.417c-1.984-0.126-4.273,1.119-6.301,3.408c-1.831,2.066-3.144,4.662-3.426,6.772
						c-0.256,1.912-1.028,3.707-1.592,5.017c-0.589,1.367-1.144,1.975-1.507,2.495c-1.008,1.447,0.111,2.917,0.275,2.923
						c0.275,0.011,2.46-0.112,2.574-0.165c1.814-0.85,4.038-2.118,5.336-6.296c0.357-1.149,0.573-4.027,0.632-5.231
						c0.075-1.523,2.752-2.734,3.969-3.799c2.549-2.23,0.533-4.299,0.557-4.376l0.217-0.702L83.847,81.417z"/>
				</g>
				<g>
					<path style="fill:#000D3E;" d="M99.972,94.338c-0.769-2.5-2.175-4.765-3.05-7.23c-0.212-0.599,0.022-1.051,0.425-1.297
						c-1.986-2.26-5.748-5.27-9.263-5.759c-2.207-0.305-4.012,0.386-5.371,2.057l-0.164,0.201l0.042,0.256
						c0.04,0.243,0.51,2.418,4.824,3.93c3.908,1.369,4.922,3.058,5.819,7.127c1.11,5.031,3.168,8.004,5.564,8.097
						c0.147,0.006,0.295,0.001,0.444-0.015c0.817-0.088,1.393-0.269,1.807-0.48C100.853,98.91,100.655,96.559,99.972,94.338z"/>
				</g>
				<g>
					<path style="fill:#000D3E;" d="M66.233,111.447c-0.079-0.003-0.155-0.042-0.203-0.112c-1.898-2.747-1.813-6.454-1.099-9.006
						c0.685-2.453,2.004-4.324,3.526-5.006c3.264-1.462,5.409-5.796,5.43-5.84c0.063-0.129,0.216-0.183,0.347-0.12
						c0.129,0.063,0.182,0.218,0.119,0.347c-0.09,0.185-2.246,4.546-5.684,6.086c-1.383,0.62-2.594,2.366-3.239,4.672
						c-0.682,2.439-0.77,5.972,1.026,8.572c0.082,0.118,0.052,0.279-0.066,0.361C66.343,111.435,66.288,111.449,66.233,111.447z"/>
				</g>
				<g>
					<path style="fill:#FFFFFF;" d="M83.27,107.488c0,0,6.546-0.709,6.645-0.451c0.1,0.258-1.186,1.629-2.287,1.826
						C84.579,109.41,83.27,107.488,83.27,107.488z"/>
				</g>
				<g>
					<path style="fill:#FB4D46;" d="M75.664,116.251"/>
				</g>
				<path style="fill:#FB4D46;" d="M76.42,83.668c0,0-4.424-3.847-5.684-8.114c-0.149-0.504-0.884-0.457-0.96,0.063
					c-0.407,2.778-0.215,7.548,4.077,12.426L76.42,83.668z"/>
				<path style="fill:#FB4D46;" d="M92.645,79.796c0,0,4.709-3.492,6.297-7.648c0.187-0.491,0.916-0.387,0.952,0.137
					c0.19,2.801-0.371,7.542-5.03,12.072L92.645,79.796z"/>
			</g>
			<path style="fill:#D73532;" d="M103.151,138.586c0,0-0.759-2.649-0.876-3.642c-0.117-0.993-0.963-4.992-0.847-5.664
				c0.117-0.671,0.631-0.088,0.856,1.139c0.224,1.226,0.808,4.846,0.867,4.905c0.058,0.058,0.409-3.708,0.642-4.554
				c0.234-0.847,0.525-0.876,0.817-0.73c0.292,0.146-0.088,1.898-0.117,3.065c-0.029,1.168-0.642,4.977-0.672,5.481
				C103.793,139.09,103.302,139.127,103.151,138.586z"/>
			<path style="fill:#D73532;" d="M69.52,148.052c0,0-1.095-0.167-1.139-4.068c-0.044-3.902-0.438-8.062,0-7.755
				c0.438,0.307,1.453,3.209,1.139,4.788c-0.315,1.579-0.275,4.233,0.06,4.058c0.335-0.175,0.948-4.379,1.167-5.167
				c0.219-0.788,1.095-1.158,1.27-0.929c0.175,0.229-1.708,8.199-1.664,9.074C70.396,148.928,69.52,148.052,69.52,148.052z"/>
			<path style="fill:#000D3E;" d="M116.83,87.112c0,0,6.473,0.24,7.923-6.742c-3.678-3.536-5.977-8.497-5.977-14.002
				c0-10.735,8.702-19.437,19.437-19.437c10.735,0,19.437,8.702,19.437,19.437c0,10.735-8.702,19.437-19.437,19.437
				c-1.513,0-2.98-0.19-4.394-0.517C129.596,87.045,123.387,88.676,116.83,87.112z"/>
			<g>
				<g>
					
						<rect x="137.476" y="55.864" transform="matrix(0.7071 -0.7071 0.7071 0.7071 -6.2007 117.7684)" style="fill:#FFFFFF;" width="3.16" height="21.009"/>
				</g>
				<g>
					
						<rect x="128.551" y="64.789" transform="matrix(0.7071 -0.7071 0.7071 0.7071 -6.2014 117.7665)" style="fill:#FFFFFF;" width="21.009" height="3.16"/>
				</g>
			</g>
		</g>
	</g>
</g>
</svg>
